<svg width="32" height="32" viewBox="0 0 32 32" xmlns="http://www.w3.org/2000/svg">
<path fill-rule="evenodd" clip-rule="evenodd" d="M15.75 -3.75189e-08C16.1642 -1.67978e-08 16.5 0.335786 16.5 0.75L16.5 19.6136C16.5 20.0278 16.1642 20.3636 15.75 20.3636C15.3358 20.3636 15 20.0278 15 19.6136L15 0.75C15 0.335786 15.3358 -5.82401e-08 15.75 -3.75189e-08Z" />
<path fill-rule="evenodd" clip-rule="evenodd" d="M4.40918 6.95459V30.1364H27.591V6.95459H4.40918ZM4.36373 5.45459C3.5604 5.45459 2.90918 6.10581 2.90918 6.90914V30.1819C2.90918 30.9852 3.5604 31.6364 4.36373 31.6364H27.6365C28.4398 31.6364 29.091 30.9852 29.091 30.1819V6.90914C29.091 6.10581 28.4398 5.45459 27.6365 5.45459H4.36373Z" />
</svg>
