<svg width="32" height="32" viewBox="0 0 32 32" xmlns="http://www.w3.org/2000/svg">
<path fill-rule="evenodd" clip-rule="evenodd" d="M22.8023 30.6695C22.5094 30.3766 22.5094 29.9017 22.8023 29.6088L27.3416 25.0695C27.6345 24.7767 28.1094 24.7767 28.4022 25.0695C28.6951 25.3624 28.6951 25.8373 28.4022 26.1302L23.863 30.6695C23.5701 30.9624 23.0952 30.9624 22.8023 30.6695Z"/>
<path fill-rule="evenodd" clip-rule="evenodd" d="M18.1303 25.0696C18.4232 24.7767 18.8981 24.7767 19.191 25.0696L23.7303 29.6089C24.0232 29.9018 24.0232 30.3767 23.7303 30.6696C23.4374 30.9625 22.9625 30.9625 22.6696 30.6696L18.1303 26.1303C17.8374 25.8374 17.8374 25.3625 18.1303 25.0696Z"/>
<path fill-rule="evenodd" clip-rule="evenodd" d="M23.0498 30.3999C22.6356 30.3999 22.2998 30.0641 22.2998 29.6499V15.1499C22.2998 14.7357 22.6356 14.3999 23.0498 14.3999C23.464 14.3999 23.7998 14.7357 23.7998 15.1499V29.6499C23.7998 30.0641 23.464 30.3999 23.0498 30.3999Z" fill="#111C4E"/>
<path fill-rule="evenodd" clip-rule="evenodd" d="M8.40191 7.73017C8.10902 8.02306 8.10902 8.49793 8.40191 8.79083L12.9412 13.3301C13.2341 13.623 13.709 13.623 14.0019 13.3301C14.2948 13.0372 14.2948 12.5623 14.0019 12.2695L9.46257 7.73017C9.16968 7.43727 8.69481 7.43727 8.40191 7.73017Z"/>
<path fill-rule="evenodd" clip-rule="evenodd" d="M3.73041 13.3303C4.02331 13.6232 4.49818 13.6232 4.79107 13.3303L9.33036 8.79098C9.62325 8.49809 9.62325 8.02321 9.33036 7.73032C9.03747 7.43743 8.56259 7.43743 8.2697 7.73032L3.73041 12.2696C3.43752 12.5625 3.43752 13.0374 3.73041 13.3303Z"/>
<path fill-rule="evenodd" clip-rule="evenodd" d="M8.6499 8C8.23569 8 7.8999 8.33579 7.8999 8.75L7.8999 23.25C7.8999 23.6642 8.23569 24 8.6499 24C9.06412 24 9.3999 23.6642 9.3999 23.25V8.75C9.3999 8.33579 9.06412 8 8.6499 8Z" />
</svg>
