<svg width="18" height="14" viewBox="0 0 18 14" fill="none" xmlns="http://www.w3.org/2000/svg">
<path d="M2.68623 5.58817e-05L15.3138 5.69856e-05C15.8123 -0.000664902 16.3008 0.139808 16.7228 0.405216C17.1448 0.670625 17.483 1.05012 17.6983 1.49976C17.9503 2.03327 18.0474 2.62684 17.9784 3.21283C17.9095 3.79882 17.6773 4.35366 17.3084 4.81412L10.9946 12.4626C10.7468 12.7485 10.4405 12.9778 10.0964 13.1349C9.75222 13.2921 9.37832 13.3734 9 13.3734C8.62168 13.3734 8.24778 13.2921 7.90364 13.1349C7.5595 12.9778 7.25317 12.7485 7.00539 12.4626L0.691617 4.81412C0.32268 4.35366 0.0905141 3.79882 0.021573 3.21283C-0.0473662 2.62684 0.049697 2.03327 0.301696 1.49976C0.516967 1.05011 0.855176 0.670623 1.27718 0.405215C1.69917 0.139806 2.18771 -0.000666093 2.68623 5.58817e-05Z" fill="#EF3738"/>
</svg>
