<svg
    width="20"
    height="20"
    viewBox="0 0 20 20"
    fill="none"
    xmlns="http://www.w3.org/2000/svg"
>
    <path
        fill-rule="evenodd"
        clip-rule="evenodd"
        d="M4.72233 0.916992C5.13654 0.916992 5.47233 1.25278 5.47233 1.66699V10.8337C5.47233 10.8694 5.46984 10.9045 5.46501 10.9389C6.78589 11.2703 7.764 12.4655 7.764 13.8892C7.764 15.3103 6.7895 16.5037 5.47233 16.8377V18.4725C5.47233 18.8868 5.13654 19.2225 4.72233 19.2225C4.30812 19.2225 3.97233 18.8868 3.97233 18.4725V16.8377C2.65516 16.5037 1.68066 15.3103 1.68066 13.8892C1.68066 12.4655 2.65877 11.2703 3.97965 10.9389C3.97483 10.9045 3.97233 10.8694 3.97233 10.8337V1.66699C3.97233 1.25278 4.30812 0.916992 4.72233 0.916992ZM3.18066 13.8892C3.18066 13.0378 3.87089 12.3475 4.72233 12.3475C5.57377 12.3475 6.264 13.0378 6.264 13.8892C6.264 14.7407 5.57377 15.4309 4.72233 15.4309C3.87089 15.4309 3.18066 14.7407 3.18066 13.8892Z"
        fill="#111C4E"
    />
    <path
        fill-rule="evenodd"
        clip-rule="evenodd"
        d="M13.8888 0.916992C14.303 0.916992 14.6388 1.25278 14.6388 1.66699V4.8296C15.956 5.16362 16.9305 6.35706 16.9305 7.7781C16.9305 9.19915 15.956 10.3926 14.6388 10.7266V18.4725C14.6388 18.8868 14.303 19.2225 13.8888 19.2225C13.4746 19.2225 13.1388 18.8868 13.1388 18.4725V10.7266C11.8217 10.3926 10.8472 9.19915 10.8472 7.7781C10.8472 6.35706 11.8217 5.16362 13.1388 4.8296V1.66699C13.1388 1.25278 13.4746 0.916992 13.8888 0.916992ZM13.8878 9.31977C13.8882 9.31977 13.8885 9.31977 13.8888 9.31977C14.7403 9.31977 15.4305 8.62954 15.4305 7.7781C15.4305 6.92666 14.7403 6.23644 13.8888 6.23644C13.0374 6.23644 12.3472 6.92666 12.3472 7.7781C12.3472 8.62921 13.0369 9.31924 13.8878 9.31977Z"
        fill="#111C4E"
    />
</svg>