<svg width="20" height="20" viewBox="0 0 20 20" fill="none" xmlns="http://www.w3.org/2000/svg">
<path d="M4.14697 2.5L4.70124 2.04946C4.56814 1.88571 4.36944 1.78919 4.15844 1.78581C3.94745 1.78242 3.74575 1.8725 3.60746 2.03189L4.14697 2.5ZM4.14697 17.5H3.43269C3.43269 17.8945 3.75248 18.2143 4.14697 18.2143V17.5ZM11.3727 18.2143C11.7672 18.2143 12.087 17.8945 12.087 17.5C12.087 17.1055 11.7672 16.7857 11.3727 16.7857V18.2143ZM6.54097 6.57757C6.7898 6.88369 7.23967 6.93013 7.54578 6.6813C7.8519 6.43247 7.89834 5.9826 7.64951 5.67649L6.54097 6.57757ZM0.460483 5.65892C0.201954 5.95689 0.233924 6.40802 0.531891 6.66655C0.829858 6.92507 1.28099 6.8931 1.53952 6.59514L0.460483 5.65892ZM9.57971 1.78571C9.18522 1.78571 8.86543 2.10551 8.86543 2.5C8.86543 2.89449 9.18522 3.21429 9.57971 3.21429V1.78571ZM16.5991 2.5H17.3134C17.3134 2.10551 16.9936 1.78571 16.5991 1.78571V2.5ZM16.5991 17.5L16.0425 17.9477C16.1831 18.1225 16.3976 18.2211 16.6218 18.2139C16.8461 18.2068 17.0539 18.0947 17.1831 17.9113L16.5991 17.5ZM19.584 14.502C19.8111 14.1795 19.7338 13.7339 19.4113 13.5067C19.0887 13.2796 18.6431 13.3569 18.416 13.6795L19.584 14.502ZM14.4137 13.6431C14.1665 13.3357 13.7169 13.2869 13.4095 13.5341C13.1021 13.7813 13.0533 14.231 13.3005 14.5384L14.4137 13.6431ZM3.43269 2.5V17.5H4.86126V2.5H3.43269ZM4.14697 18.2143H11.3727V16.7857H4.14697V18.2143ZM7.64951 5.67649L4.70124 2.04946L3.5927 2.95054L6.54097 6.57757L7.64951 5.67649ZM3.60746 2.03189L0.460483 5.65892L1.53952 6.59514L4.68649 2.96811L3.60746 2.03189ZM9.57971 3.21429H16.5991V1.78571H9.57971V3.21429ZM15.8848 2.5V17.5H17.3134V2.5H15.8848ZM17.1831 17.9113L19.584 14.502L18.416 13.6795L16.0151 17.0887L17.1831 17.9113ZM17.1557 17.0523L14.4137 13.6431L13.3005 14.5384L16.0425 17.9477L17.1557 17.0523Z" fill="#111C4E"/>
</svg>
