<svg width="20" height="20" viewBox="0 0 20 20" fill="none" xmlns="http://www.w3.org/2000/svg">
<path d="M18.8983 4.10164L16.3333 6.6558L13.3333 3.6758L15.9 1.1208C15.3079 0.864183 14.6566 0.775665 14.0175 0.864969C12.8317 0.966824 11.7293 1.51672 10.9346 2.40273C10.1399 3.28874 9.71274 4.44427 9.74 5.63414C9.73497 6.10217 9.82336 6.56651 10 6.99997L1.7875 14.2358C1.22363 14.7387 0.882622 15.4451 0.839489 16.1994C0.796357 16.9538 1.05463 17.6944 1.5575 18.2583C1.57667 18.2808 1.59667 18.3016 1.61667 18.3233C1.86543 18.5831 2.16294 18.7914 2.4922 18.9362C2.82147 19.081 3.17604 19.1595 3.53565 19.1672C3.89527 19.175 4.25289 19.1118 4.58808 18.9813C4.92327 18.8508 5.22946 18.6555 5.48917 18.4066C5.57245 18.3284 5.65066 18.2449 5.72333 18.1566L12.995 9.98164C13.7721 10.2099 14.5896 10.2667 15.3908 10.1483C16.2351 9.97378 17.0159 9.57225 17.6489 8.98694C18.2819 8.40162 18.7433 7.65471 18.9833 6.82664C19.2558 5.93371 19.2259 4.97584 18.8983 4.10164Z" stroke="#111C4E" stroke-width="1.5" stroke-linecap="round" stroke-linejoin="round"/>
</svg>
