<svg width="24" height="24" viewBox="0 0 24 24" fill="none" xmlns="http://www.w3.org/2000/svg">
<g clip-path="url(#clip0_47_3942)">
<path d="M12 15.75C14.0711 15.75 15.75 14.0711 15.75 12C15.75 9.92893 14.0711 8.25 12 8.25C9.92893 8.25 8.25 9.92893 8.25 12C8.25 14.0711 9.92893 15.75 12 15.75Z" stroke="#545454" stroke-width="2" stroke-linecap="round" stroke-linejoin="round"/>
<path d="M20.25 12C20.25 11.3025 20.154 10.6305 19.992 9.984L22.8675 8.3235L20.6175 4.4265L17.745 6.0855C16.779 5.1465 15.5835 4.446 14.25 4.0695V0.75H9.75001V4.068C8.41801 4.446 7.22251 5.1465 6.25501 6.0855L3.38251 4.4265L1.13251 8.3235L4.00801 9.984C3.84601 10.6305 3.75001 11.3025 3.75001 12C3.75001 12.696 3.84601 13.3695 4.00801 14.016L1.13251 15.6765L3.38251 19.5735L6.25651 17.9145C7.22251 18.8535 8.41801 19.554 9.75151 19.9305V23.25H14.2515V19.932C15.585 19.554 16.779 18.8535 17.7465 17.916L20.6205 19.575L22.8705 15.678L19.995 14.0175C20.154 13.3695 20.25 12.696 20.25 12Z" stroke="#545454" stroke-width="2" stroke-linecap="round" stroke-linejoin="round"/>
</g>
<defs>
<clipPath id="clip0_47_3942">
<rect width="24" height="24" fill="white"/>
</clipPath>
</defs>
</svg>
