<svg width="24" height="24" viewBox="0 0 24 24" fill="none" xmlns="http://www.w3.org/2000/svg">
<path d="M13.7233 20.0033C13.3701 20.6219 12.7123 21.0037 12 21.0037C11.2876 21.0037 10.6299 20.6219 10.2767 20.0033" stroke="black" stroke-width="1.5" stroke-linecap="round" stroke-linejoin="round"/>
<path fill-rule="evenodd" clip-rule="evenodd" d="M6.49861 8.99875V8.49764C6.49861 5.45931 8.96166 2.99625 12 2.99625V2.99625C15.0383 2.99625 17.5014 5.45931 17.5014 8.49764V8.99873V8.99873C17.5014 11.5963 18.3439 14.1237 19.9024 16.2017V16.2017C20.016 16.3533 20.0343 16.5561 19.9496 16.7256C19.8649 16.895 19.6917 17.0021 19.5022 17.0021H4.49777C4.3083 17.0021 4.1351 16.895 4.05037 16.7256C3.96564 16.5561 3.98392 16.3533 4.0976 16.2017V16.2017C5.65612 14.1237 6.4986 11.5963 6.4986 8.99873L6.49861 8.99875Z" stroke="black" stroke-width="1.5" stroke-linecap="round" stroke-linejoin="round"/>
</svg>
