<svg width="20" height="20" viewBox="0 0 20 20" fill="none" xmlns="http://www.w3.org/2000/svg">
<path d="M10 7.5V10.8333L6.5 13.4167" fill="#111C4E"/>
<path d="M10 7.5V10.8333L6.5 13.4167" stroke="#111C4E" stroke-width="1.5" stroke-linecap="round" stroke-linejoin="round"/>
<path d="M10 10.8333L13.5 13.4166" stroke="#111C4E" stroke-width="1.5" stroke-linecap="round" stroke-linejoin="round"/>
<path d="M10.0001 7.49998C11.841 7.49998 13.3334 6.0076 13.3334 4.16665C13.3334 2.3257 11.841 0.833313 10.0001 0.833313C8.15913 0.833313 6.66675 2.3257 6.66675 4.16665C6.66675 6.0076 8.15913 7.49998 10.0001 7.49998Z" stroke="#111C4E" stroke-width="1.5" stroke-linecap="round" stroke-linejoin="round"/>
<path d="M4.16671 19.1667C6.00766 19.1667 7.50004 17.6743 7.50004 15.8333C7.50004 13.9924 6.00766 12.5 4.16671 12.5C2.32576 12.5 0.833374 13.9924 0.833374 15.8333C0.833374 17.6743 2.32576 19.1667 4.16671 19.1667Z" stroke="#111C4E" stroke-width="1.5" stroke-linecap="round" stroke-linejoin="round"/>
<path d="M15.8333 19.1667C17.6743 19.1667 19.1667 17.6743 19.1667 15.8333C19.1667 13.9924 17.6743 12.5 15.8333 12.5C13.9924 12.5 12.5 13.9924 12.5 15.8333C12.5 17.6743 13.9924 19.1667 15.8333 19.1667Z" stroke="#111C4E" stroke-width="1.5" stroke-linecap="round" stroke-linejoin="round"/>
</svg>
