<svg width="15" height="11" viewBox="0 0 15 11" fill="none" xmlns="http://www.w3.org/2000/svg">
<path d="M12.5511 10.8487H2.44903C2.05021 10.8493 1.65939 10.7369 1.32179 10.5246C0.984187 10.3123 0.71362 10.0087 0.541403 9.64894C0.339803 9.22214 0.262155 8.74728 0.317307 8.27849C0.372459 7.8097 0.558193 7.36583 0.853343 6.99746L5.90436 0.878651C6.10258 0.64994 6.34765 0.466513 6.62296 0.340799C6.89827 0.215086 7.19739 0.150024 7.50005 0.150024C7.8027 0.150024 8.10182 0.215086 8.37713 0.340799C8.65245 0.466513 8.89752 0.64994 9.09574 0.878651L14.1468 6.99746C14.4419 7.36583 14.6276 7.8097 14.6828 8.27849C14.7379 8.74728 14.6603 9.22214 14.4587 9.64894C14.2865 10.0087 14.0159 10.3123 13.6783 10.5246C13.3407 10.7369 12.9499 10.8493 12.5511 10.8487Z" fill="#00AE43"/>
</svg>
