<svg width="22" height="24" viewBox="0 0 22 24" fill="none" xmlns="http://www.w3.org/2000/svg">
<path fill-rule="evenodd" clip-rule="evenodd" d="M12 1C12 0.447715 11.5523 0 11 0C10.4477 0 10 0.447715 10 1V5H7C6.44772 5 6 5.44772 6 6C6 6.55228 6.44772 7 7 7H10V11H1C0.447715 11 0 11.4477 0 12C0 12.5523 0.447715 13 1 13H10V17H7C6.44772 17 6 17.4477 6 18C6 18.5523 6.44772 19 7 19H10V23C10 23.5523 10.4477 24 11 24C11.5523 24 12 23.5523 12 23V19H15C15.5523 19 16 18.5523 16 18C16 17.4477 15.5523 17 15 17H12V13H21C21.5523 13 22 12.5523 22 12C22 11.4477 21.5523 11 21 11H12V7H15C15.5523 7 16 6.55228 16 6C16 5.44772 15.5523 5 15 5H12V1Z" fill="#111C4E"/>
</svg>
