<svg width="24" height="24" viewBox="0 0 24 24" fill="none" xmlns="http://www.w3.org/2000/svg">
<path d="M22.678 4.92199L19.6 7.98699L16 4.41099L19.08 1.34499C18.3695 1.03704 17.5879 0.930823 16.821 1.03799C15.398 1.16021 14.0751 1.82009 13.1215 2.8833C12.1679 3.94651 11.6553 5.33315 11.688 6.76099C11.682 7.32263 11.788 7.87984 12 8.39999L2.14499 17.083C1.46835 17.6865 1.05914 18.5341 1.00738 19.4393C0.955622 20.3446 1.26555 21.2333 1.86899 21.91C1.89199 21.937 1.91599 21.962 1.93999 21.988C2.23851 22.2998 2.59552 22.5497 2.99064 22.7234C3.38576 22.8972 3.81124 22.9914 4.24278 23.0007C4.67432 23.01 5.10346 22.9342 5.50569 22.7776C5.90791 22.6209 6.27535 22.3866 6.58699 22.088C6.68693 21.9941 6.78079 21.8938 6.86799 21.788L15.594 11.978C16.5266 12.2519 17.5075 12.3201 18.469 12.178C19.4822 11.9686 20.419 11.4867 21.1787 10.7843C21.9383 10.082 22.492 9.18568 22.78 8.19199C23.1069 7.12048 23.0711 5.97104 22.678 4.92199Z" stroke="#111C4E" stroke-width="2" stroke-linecap="round" stroke-linejoin="round"/>
</svg>
