<svg width="19" height="19" viewBox="0 0 19 19" fill="none" xmlns="http://www.w3.org/2000/svg">
<path d="M9.42725 5.73917V9.36239L12.3258 12.261" stroke="#0345DE" stroke-width="1.5" stroke-linecap="round" stroke-linejoin="round"/>
<path d="M1.45654 9.36236C1.45657 11.1966 2.0892 12.9747 3.24772 14.3968C4.40624 15.8189 6.01977 16.7979 7.81615 17.1687C9.61253 17.5396 11.4818 17.2795 13.1088 16.4324C14.7357 15.5853 16.0207 14.2031 16.7471 12.5188C17.4735 10.8345 17.5967 8.95117 17.0961 7.18657C16.5954 5.42196 15.5015 3.88401 13.9988 2.83212C12.4961 1.78023 10.6767 1.27876 8.84729 1.41231C7.0179 1.54585 5.29054 2.30623 3.95657 3.5652" stroke="#0345DE" stroke-width="1.5" stroke-linecap="round" stroke-linejoin="round"/>
<path d="M2.9059 0.666656L1.16675 5.59424L6.38419 5.30438L2.9059 0.666656Z" fill="#0345DE"/>
</svg>
