<svg width="20" height="23" viewBox="0 0 20 23" fill="none" xmlns="http://www.w3.org/2000/svg">
<path fill-rule="evenodd" clip-rule="evenodd" d="M5.66667 1.00015C5.66667 0.447868 5.21896 0.000152588 4.66667 0.000152588C4.11439 0.000152588 3.66667 0.447868 3.66667 1.00015V12.0002C3.66667 12.0173 3.6671 12.0343 3.66796 12.0513C2.08171 12.4885 0.916672 13.9416 0.916672 15.6668C0.916672 17.3916 2.08108 18.8444 3.66667 19.282V21.1668C3.66667 21.7191 4.11439 22.1668 4.66667 22.1668C5.21896 22.1668 5.66667 21.7191 5.66667 21.1668V19.282C7.25227 18.8444 8.41667 17.3916 8.41667 15.6668C8.41667 13.9416 7.25164 12.4885 5.66539 12.0513C5.66624 12.0343 5.66667 12.0173 5.66667 12.0002V1.00015ZM4.66667 13.9168C3.70017 13.9168 2.91667 14.7003 2.91667 15.6668C2.91667 16.6333 3.70017 17.4168 4.66667 17.4168C5.63317 17.4168 6.41667 16.6333 6.41667 15.6668C6.41667 14.7003 5.63317 13.9168 4.66667 13.9168ZM16.6667 1.00015C16.6667 0.447868 16.219 0.000152588 15.6667 0.000152588C15.1144 0.000152588 14.6667 0.447868 14.6667 1.00015V4.71829C13.0811 5.15592 11.9167 6.60872 11.9167 8.33349C11.9167 10.0583 13.0811 11.5111 14.6667 11.9487V21.1668C14.6667 21.7191 15.1144 22.1668 15.6667 22.1668C16.219 22.1668 16.6667 21.7191 16.6667 21.1668V11.9487C18.2523 11.5111 19.4167 10.0583 19.4167 8.33349C19.4167 6.60872 18.2523 5.15592 16.6667 4.71829V1.00015ZM15.6667 10.0835L15.6656 10.0835C14.6996 10.0829 13.9167 9.29961 13.9167 8.33349C13.9167 7.36699 14.7002 6.58349 15.6667 6.58349C16.6332 6.58349 17.4167 7.36699 17.4167 8.33349C17.4167 9.29961 16.6338 10.0829 15.6678 10.0835L15.6667 10.0835Z" fill="#111C4E"/>
</svg>
