<svg width="120" height="24" viewBox="0 0 120 24" fill="none" xmlns="http://www.w3.org/2000/svg">
<g clip-path="url(#clip0_47_3690)">
<path fill-rule="evenodd" clip-rule="evenodd" d="M20.1443 19.3681C21.8375 17.3037 22.7641 14.706 22.7641 12.024C22.7641 9.34195 21.8375 6.74422 20.1443 4.67981V19.3681Z" fill="#111C4E"/>
<path fill-rule="evenodd" clip-rule="evenodd" d="M16.4319 22.3471C17.5373 21.788 18.5456 21.0514 19.4178 20.1658V3.86405C18.5456 2.98316 17.5371 2.25228 16.4319 1.70029V22.3471Z" fill="#111C4E"/>
<path fill-rule="evenodd" clip-rule="evenodd" d="M12.1987 23.4981C13.4063 23.4118 14.5924 23.1296 15.7115 22.6624V1.36312C14.5921 0.89704 13.4062 0.614911 12.1987 0.527405V23.4981Z" fill="#111C4E"/>
<path fill-rule="evenodd" clip-rule="evenodd" d="M1.61965 13.51C1.33704 13.9141 1.18623 14.3974 1.18826 14.8923V17.1234C0.109249 14.9275 -0.246359 12.4399 0.173482 10.0249C0.593322 7.60987 1.76657 5.39414 3.52149 3.70203V10.2002C3.52283 10.5575 3.41333 10.9062 3.20842 11.1973L1.61965 13.51Z" fill="#111C4E"/>
<path fill-rule="evenodd" clip-rule="evenodd" d="M4.93274 14.676C4.53586 15.2083 4.33551 15.8642 4.36637 16.5301V21.0795C3.40859 20.3252 2.5778 19.4192 1.90619 18.3966V14.8979C1.90848 14.5587 2.0106 14.2278 2.19954 13.9475L3.83268 11.575C4.10653 11.1718 4.25092 10.693 4.2462 10.2039V3.057C5.14735 2.31851 6.15437 1.72298 7.23269 1.29083V10.5641C7.23371 11.0651 7.08318 11.5544 6.80129 11.9663L4.93274 14.676Z" fill="#111C4E"/>
<path fill-rule="evenodd" clip-rule="evenodd" d="M9.11916 16.0377L10.9187 13.4022C11.2824 12.8692 11.476 12.2363 11.4733 11.5887V0.501862H11.3871C10.2247 0.502245 9.06928 0.681923 7.96055 1.0347V10.571C7.96216 11.1798 7.79106 11.7763 7.46753 12.2898L5.48804 15.1565C5.22361 15.5293 5.08566 15.9786 5.09485 16.4372V21.621C5.11611 21.636 5.13835 21.6496 5.16141 21.6615C6.21646 22.3678 7.38145 22.8897 8.60765 23.2052V17.7927C8.60297 17.1694 8.78097 16.5588 9.11916 16.0377Z" fill="#111C4E"/>
<path fill-rule="evenodd" clip-rule="evenodd" d="M32.5162 4.60504H35.9427L40.0489 15.4712H40.089L42.2472 4.60504H45.2935L42.1005 19.8798H38.7806L34.6361 9.16441H34.5961L32.4391 19.8835H29.3331L32.5162 4.60504Z" fill="#111C4E"/>
<path fill-rule="evenodd" clip-rule="evenodd" d="M50.1812 13.9749H54.2209L53.4814 7.9018H53.4413L50.1812 13.9749ZM52.3807 4.60504H55.7875L58.3068 19.8804H55.0073L54.521 16.4758H48.8747L46.9685 19.8804H43.4557L52.3807 4.60504Z" fill="#111C4E"/>
<path fill-rule="evenodd" clip-rule="evenodd" d="M64.5861 10.7935H68.3528C69.5595 10.7935 70.5924 10.1079 70.5924 8.78488C70.5924 7.63195 69.9194 7.22063 68.839 7.22063H65.3262L64.5861 10.7935ZM63.2303 17.2717H67.3963C68.8963 17.2717 69.9958 16.4353 69.9958 14.8113C69.9958 13.2065 68.5783 13.0788 67.3766 13.0788H64.1165L63.2303 17.2717ZM62.6565 4.60504H69.0042C72.0301 4.60504 73.9104 5.26626 73.9104 8.17787C73.9587 9.02029 73.6951 9.85072 73.171 10.5074C72.647 11.1641 71.9 11.5999 71.0755 11.7301V11.7707C71.7444 11.9485 72.3323 12.3539 72.7402 12.9188C73.1481 13.4836 73.3511 14.1733 73.3151 14.8717C73.3151 18.1884 70.5689 19.8736 67.5424 19.8736H59.487L62.6565 4.60504Z" fill="#111C4E"/>
<path fill-rule="evenodd" clip-rule="evenodd" d="M82.3774 17.42C85.6376 17.42 87.2639 13.9145 87.2639 11.0228C87.2639 8.88583 86.3303 7.06607 83.8972 7.06607C80.491 7.06607 78.9448 10.551 78.9448 13.4851C78.9515 15.5797 79.9635 17.42 82.3774 17.42ZM83.8775 4.24109C87.964 4.24109 90.5832 6.50582 90.5832 10.7847C90.5832 15.8134 87.6251 20.2425 82.3312 20.2425C78.098 20.2425 75.6249 17.7821 75.6249 13.4813C75.6317 8.5412 78.7784 4.24109 83.8775 4.24109Z" fill="#111C4E"/>
<path fill-rule="evenodd" clip-rule="evenodd" d="M96.2949 11.5145H99.3615C101.114 11.4946 102.787 10.8072 102.787 9.09459C102.787 7.44996 101.648 7.21376 100.335 7.21376H97.1817L96.2949 11.5145ZM94.3887 4.60503H101.599C104.326 4.56514 106.105 5.65015 106.105 8.60289C106.119 9.5973 105.774 10.5628 105.135 11.3184C104.496 12.0741 103.606 12.5681 102.632 12.7079V12.7484C103.879 13.1323 104.199 14.2441 104.199 15.4444C104.199 16.1256 104.092 17.157 104.092 18.1005C104.062 18.6995 104.135 19.2992 104.305 19.8735H101.066C100.977 19.5392 100.927 19.1952 100.919 18.849C100.919 17.8176 101.086 16.7725 101.086 15.7479C101.086 14.2716 100.219 13.9076 98.9061 13.9076H95.7797L94.5335 19.8735H91.2167L94.3887 4.60503Z" fill="#111C4E"/>
<path fill-rule="evenodd" clip-rule="evenodd" d="M109.835 14.8113C109.728 16.9682 111.19 17.6356 113.094 17.6356C114.428 17.6356 115.974 16.995 115.974 15.4787C115.974 13.983 114.028 13.6789 112.148 13.1056C110.241 12.5054 108.341 11.6292 108.341 9.00052C108.341 5.59595 111.408 4.24796 114.327 4.24796C117.414 4.24796 120 5.63646 120 9.17128H116.847C116.914 7.45933 115.681 6.85919 114.141 6.85919C112.875 6.85919 111.494 7.35152 111.494 8.75996C111.494 10.2768 114.054 10.6614 115.088 10.9175C117.46 11.5376 119.127 12.4612 119.127 15.1977C119.127 18.8577 115.848 20.2456 112.968 20.2456C108.802 20.2456 106.688 18.4926 106.688 14.8125L109.835 14.8113Z" fill="#111C4E"/>
</g>
<defs>
<clipPath id="clip0_47_3690">
<rect width="120" height="23" fill="white" transform="translate(0 0.5)"/>
</clipPath>
</defs>
</svg>
