<svg width="32" height="32" viewBox="0 0 32 32" fill="none" xmlns="http://www.w3.org/2000/svg">
<path fill-rule="evenodd" clip-rule="evenodd" d="M8.40863 11.7112C8.70153 11.4183 9.1764 11.4183 9.46929 11.7112L22.8079 25.0498C23.1008 25.3427 23.1008 25.8176 22.8079 26.1105C22.515 26.4034 22.0401 26.4034 21.7472 26.1105L8.40863 12.7719C8.11574 12.479 8.11574 12.0041 8.40863 11.7112Z" fill="#111C4E"/>
<path fill-rule="evenodd" clip-rule="evenodd" d="M4.40918 7.31812V30.4999H27.591V7.31812H4.40918ZM4.36373 5.81812C3.5604 5.81812 2.90918 6.46934 2.90918 7.27266V30.5454C2.90918 31.3487 3.5604 31.9999 4.36373 31.9999H27.6365C28.4398 31.9999 29.091 31.3487 29.091 30.5454V7.27266C29.091 6.46934 28.4398 5.81812 27.6365 5.81812H4.36373Z" fill="#111C4E"/>
</svg>
