<svg width="32" height="32" viewBox="0 0 32 32" fill="none" xmlns="http://www.w3.org/2000/svg">
<path fill-rule="evenodd" clip-rule="evenodd" d="M5.33197 7.15899C5.62487 6.8661 6.09974 6.8661 6.39263 7.15899L28.2228 28.9891C28.5157 29.282 28.5157 29.7569 28.2228 30.0498C27.9299 30.3427 27.455 30.3427 27.1621 30.0498L5.33197 8.21965C5.03908 7.92676 5.03908 7.45189 5.33197 7.15899Z" fill="#111C4E"/>
<path fill-rule="evenodd" clip-rule="evenodd" d="M27.1348 7.15899C26.8419 6.8661 26.3671 6.8661 26.0742 7.15899L19.6236 13.6096C19.3307 13.9025 19.3307 14.3774 19.6236 14.6703C19.9165 14.9631 20.3913 14.9632 20.6842 14.6703L27.1348 8.21965C27.4277 7.92676 27.4277 7.45189 27.1348 7.15899ZM13.0081 21.2858C12.7152 20.9929 12.2403 20.9929 11.9474 21.2858L4.27123 28.9619C3.97833 29.2548 3.97833 29.7297 4.27123 30.0226C4.56412 30.3155 5.03899 30.3155 5.33189 30.0226L13.0081 22.3464C13.3009 22.0535 13.3009 21.5787 13.0081 21.2858Z" fill="#111C4E"/>
</svg>
