<svg width="20" height="20" viewBox="0 0 20 20" fill="none" xmlns="http://www.w3.org/2000/svg">
<path fill-rule="evenodd" clip-rule="evenodd" d="M9.65625 -3.75189e-08C10.0705 -1.67978e-08 10.4062 0.335786 10.4062 0.75L10.4062 11.3409C10.4062 11.7551 10.0705 12.0909 9.65625 12.0909C9.24204 12.0909 8.90625 11.7551 8.90625 11.3409L8.90625 0.75C8.90625 0.335786 9.24204 -5.82401e-08 9.65625 -3.75189e-08Z" fill="#111C4E"/>
<path fill-rule="evenodd" clip-rule="evenodd" d="M3.22754 4.73877V17.2842H15.773V4.73877H3.22754ZM2.59118 3.23877C2.1142 3.23877 1.72754 3.62543 1.72754 4.10241V17.9206C1.72754 18.3976 2.1142 18.7842 2.59118 18.7842H16.4094C16.8863 18.7842 17.273 18.3976 17.273 17.9206V4.10241C17.273 3.62543 16.8863 3.23877 16.4094 3.23877H2.59118Z" fill="#111C4E"/>
</svg>
