<svg width="32" height="32" viewBox="0 0 32 32" fill="none" xmlns="http://www.w3.org/2000/svg">
<path fill-rule="evenodd" clip-rule="evenodd" d="M7.62762 7.2501C7.84916 7.25365 8.0578 7.35499 8.19756 7.52693L12.5217 12.8466C12.7829 13.168 12.7342 13.6404 12.4128 13.9016C12.0913 14.1629 11.619 14.1141 11.3577 13.7927L8.36557 10.1117V29.25H18.2133C18.6275 29.25 18.9633 29.5858 18.9633 30C18.9633 30.4142 18.6275 30.75 18.2133 30.75H7.61557C7.20136 30.75 6.86557 30.4142 6.86557 30V10.0088L3.5665 13.8112C3.29505 14.124 2.82136 14.1576 2.5085 13.8861C2.19563 13.6147 2.16206 13.141 2.43352 12.8281L7.04908 7.50849C7.19429 7.34113 7.40607 7.24654 7.62762 7.2501ZM14.8336 8C14.8336 7.58579 15.1694 7.25 15.5836 7.25H25.8787C26.2929 7.25 26.6287 7.58579 26.6287 8V27.6324L28.7868 24.5679C29.0253 24.2292 29.4932 24.148 29.8318 24.3865C30.1705 24.625 30.2517 25.0929 30.0132 25.4316L26.4919 30.4318C26.3562 30.6244 26.138 30.7421 25.9026 30.7496C25.6671 30.7571 25.4418 30.6536 25.2942 30.47L21.2727 25.4698C21.0131 25.147 21.0643 24.6749 21.3871 24.4153C21.7099 24.1557 22.182 24.2069 22.4416 24.5297L25.1287 27.8707V8.75H15.5836C15.1694 8.75 14.8336 8.41421 14.8336 8Z" fill="#111C4E"/>
</svg>
