<svg width="20" height="20" viewBox="0 0 20 20" fill="none" xmlns="http://www.w3.org/2000/svg">
<path d="M8.47304 2.85092L0.986887 15.3485C0.832539 15.6158 0.750871 15.9188 0.750007 16.2275C0.749143 16.5361 0.829113 16.8396 0.981961 17.1078C1.13481 17.3759 1.35521 17.5994 1.62123 17.7559C1.88725 17.9125 2.18962 17.9966 2.49826 18H17.4706C17.7792 17.9966 18.0816 17.9125 18.3476 17.7559C18.6136 17.5994 18.834 17.3759 18.9869 17.1078C19.1397 16.8396 19.2197 16.5361 19.2188 16.2275C19.218 15.9188 19.1363 15.6158 18.9819 15.3485L11.4958 2.85092C11.3382 2.59116 11.1164 2.3764 10.8516 2.22735C10.5869 2.0783 10.2882 2 9.98442 2C9.68061 2 9.38193 2.0783 9.11719 2.22735C8.85246 2.3764 8.63061 2.59116 8.47304 2.85092V2.85092Z" fill="#111C4E" stroke="#111C4E" stroke-width="1.5" stroke-linecap="round" stroke-linejoin="round"/>
<path d="M9.98438 7.3938V10.9292" stroke="white" stroke-width="1.5" stroke-linecap="round" stroke-linejoin="round"/>
<path d="M9.98438 14.4646H9.99271" stroke="white" stroke-width="1.5" stroke-linecap="round" stroke-linejoin="round"/>
</svg>
