<svg width="20" height="20" viewBox="0 0 20 20" fill="none" xmlns="http://www.w3.org/2000/svg">
<path d="M10 1C5.02944 1 1 5.02944 1 10C1 14.9706 5.02944 19 10 19C14.9706 19 19 14.9706 19 10C19 5.02944 14.9706 1 10 1Z" fill="#111C4E"/>
<path fill-rule="evenodd" clip-rule="evenodd" d="M10 18.25C14.5563 18.25 18.25 14.5563 18.25 10C18.25 5.44365 14.5563 1.75 10 1.75C5.44365 1.75 1.75 5.44365 1.75 10C1.75 14.5563 5.44365 18.25 10 18.25ZM19.75 10C19.75 15.3848 15.3848 19.75 10 19.75C4.61522 19.75 0.25 15.3848 0.25 10C0.25 4.61522 4.61522 0.25 10 0.25C15.3848 0.25 19.75 4.61522 19.75 10Z" fill="#111C4E"/>
<path fill-rule="evenodd" clip-rule="evenodd" d="M10 14.3501C9.58579 14.3501 9.25 14.0143 9.25 13.6001V10.0001C9.25 9.58588 9.58579 9.2501 10 9.2501C10.4142 9.2501 10.75 9.58588 10.75 10.0001V13.6001C10.75 14.0143 10.4142 14.3501 10 14.3501Z" fill="white"/>
<path fill-rule="evenodd" clip-rule="evenodd" d="M10.75 6.3999C10.75 6.81412 10.4142 7.1499 10 7.1499H9.99167C9.57745 7.1499 9.24167 6.81412 9.24167 6.3999C9.24167 5.98569 9.57745 5.6499 9.99167 5.6499H10C10.4142 5.6499 10.75 5.98569 10.75 6.3999Z" fill="white"/>
</svg>
