<svg width="20" height="20" viewBox="0 0 20 20" fill="none" xmlns="http://www.w3.org/2000/svg">
<path fill-rule="evenodd" clip-rule="evenodd" d="M8.74925 1.57381C9.1263 1.36152 9.55171 1.25 9.98442 1.25C10.4171 1.25 10.8425 1.36152 11.2196 1.57381C11.5966 1.7861 11.9126 2.09198 12.137 2.46194L12.1392 2.46551L19.6315 14.9734C19.8514 15.3541 19.9676 15.7858 19.9688 16.2254C19.9701 16.665 19.8562 17.0973 19.6385 17.4792C19.4208 17.8611 19.1068 18.1794 18.728 18.4023C18.3491 18.6253 17.9184 18.7451 17.4788 18.75L17.4706 18.75L2.49002 18.75C2.05042 18.7452 1.61976 18.6253 1.24088 18.4023C0.861986 18.1794 0.548076 17.8611 0.330378 17.4792C0.112679 17.0973 -0.00122108 16.665 9.87257e-06 16.2254C0.00124077 15.7858 0.11756 15.3541 0.337394 14.9734L0.343404 14.963L7.82964 2.46551L8.47304 2.85092L7.83179 2.46194C8.05621 2.09198 8.37219 1.7861 8.74925 1.57381ZM9.11522 3.23835C9.11491 3.23887 9.1146 3.23938 9.11429 3.23989L1.6338 15.728C1.54661 15.8808 1.5005 16.0536 1.5 16.2296C1.49951 16.4073 1.54555 16.582 1.63354 16.7364C1.72154 16.8908 1.84843 17.0194 2.00158 17.1095C2.15372 17.199 2.32652 17.2474 2.50298 17.25H17.4659C17.6423 17.2474 17.8151 17.199 17.9673 17.1095C18.1204 17.0194 18.2473 16.8908 18.3353 16.7364C18.4233 16.582 18.4693 16.4073 18.4688 16.2296C18.4683 16.0536 18.4222 15.8808 18.335 15.728L10.8545 3.23989C10.8542 3.23938 10.8539 3.23886 10.8536 3.23835C10.763 3.0895 10.6356 2.9664 10.4837 2.88089C10.3313 2.79508 10.1593 2.75 9.98442 2.75C9.80951 2.75 9.63755 2.79508 9.48514 2.88089C9.33325 2.9664 9.20588 3.0895 9.11522 3.23835Z" fill="#111C4E"/>
<path fill-rule="evenodd" clip-rule="evenodd" d="M9.98438 6.6438C10.3986 6.6438 10.7344 6.97959 10.7344 7.3938V10.9292C10.7344 11.3434 10.3986 11.6792 9.98438 11.6792C9.57016 11.6792 9.23438 11.3434 9.23438 10.9292V7.3938C9.23438 6.97959 9.57016 6.6438 9.98438 6.6438Z" fill="#111C4E"/>
<path fill-rule="evenodd" clip-rule="evenodd" d="M9.23438 14.4646C9.23438 14.0504 9.57016 13.7146 9.98438 13.7146H9.99271C10.4069 13.7146 10.7427 14.0504 10.7427 14.4646C10.7427 14.8788 10.4069 15.2146 9.99271 15.2146H9.98438C9.57016 15.2146 9.23438 14.8788 9.23438 14.4646Z" fill="#111C4E"/>
</svg>
