<svg width="20" height="20" viewBox="0 0 20 20" fill="none" xmlns="http://www.w3.org/2000/svg">
<path fill-rule="evenodd" clip-rule="evenodd" d="M7.90751 17.3557C8.26721 17.1503 8.72531 17.2754 8.93072 17.635C9.15046 18.0199 9.55961 18.2574 10.0027 18.2574C10.4459 18.2574 10.855 18.0199 11.0748 17.635C11.2802 17.2754 11.7383 17.1503 12.098 17.3557C12.4577 17.5611 12.5828 18.0192 12.3774 18.3789C11.8906 19.2313 10.9843 19.7574 10.0027 19.7574C9.02116 19.7574 8.11489 19.2313 7.62814 18.3789C7.42273 18.0192 7.54781 17.5611 7.90751 17.3557Z" fill="#111C4E"/>
<path fill-rule="evenodd" clip-rule="evenodd" d="M10.0024 1.75C7.37832 1.75 5.25106 3.87727 5.25106 6.50139V7.0025C5.25106 7.33531 5.03173 7.62832 4.71241 7.72211C4.39308 7.81589 4.05015 7.68802 3.87018 7.40807L4.50101 7.0025H3.75106V6.99806C3.75216 6.80989 3.82335 6.6347 3.94299 6.50139C4.0338 6.40021 4.15252 6.32316 4.2897 6.28288C4.57008 6.20053 4.86866 6.28906 5.05915 6.50139C5.08561 6.53089 5.10998 6.56277 5.13193 6.59691L4.50101 7.0025H5.25106C5.25106 7.00251 5.25106 7.00249 5.25106 7.0025C5.25106 9.59785 4.45942 12.1274 2.98792 14.2558H17.0169C15.5454 12.1274 14.7538 9.59784 14.7538 7.00248V6.50139C14.7538 3.87727 12.6265 1.75 10.0024 1.75ZM3.75106 6.99806C3.75105 6.99954 3.75106 7.00103 3.75106 7.0025C3.75106 9.43775 2.9612 11.8073 1.50005 13.7555C1.21592 14.1343 1.17022 14.6412 1.382 15.0647C1.59377 15.4883 2.02667 15.7558 2.50021 15.7558H17.5046C17.9782 15.7558 18.4111 15.4883 18.6229 15.0647C18.8346 14.6412 18.7889 14.1343 18.5048 13.7555C17.0437 11.8073 16.2538 9.43773 16.2538 7.00248V6.50139C16.2538 3.04885 13.455 0.25 10.0024 0.25C6.54989 0.25 3.75106 3.04885 3.75106 6.50139V6.99806Z" fill="#111C4E"/>
</svg>
