<svg width="20" height="20" viewBox="0 0 20 20" fill="none" xmlns="http://www.w3.org/2000/svg">
<path fill-rule="evenodd" clip-rule="evenodd" d="M18 2H2V18H18V2ZM1 1V19H19V1H1Z" fill="#111C4E"/>
<path fill-rule="evenodd" clip-rule="evenodd" d="M10 5.6499C10.4142 5.6499 10.75 5.98569 10.75 6.3999V9.9999C10.75 10.4141 10.4142 10.7499 10 10.7499C9.58579 10.7499 9.25 10.4141 9.25 9.9999V6.3999C9.25 5.98569 9.58579 5.6499 10 5.6499Z" fill="#111C4E"/>
<path fill-rule="evenodd" clip-rule="evenodd" d="M9.25 13.6001C9.25 13.1859 9.58579 12.8501 10 12.8501H10.0083C10.4225 12.8501 10.7583 13.1859 10.7583 13.6001C10.7583 14.0143 10.4225 14.3501 10.0083 14.3501H10C9.58579 14.3501 9.25 14.0143 9.25 13.6001Z" fill="#111C4E"/>
</svg>
