<svg width="20" height="20" viewBox="0 0 20 20" fill="none" xmlns="http://www.w3.org/2000/svg">
<path fill-rule="evenodd" clip-rule="evenodd" d="M3.4165 10C3.4165 9.58579 3.75229 9.25 4.1665 9.25H15.8332C16.2474 9.25 16.5832 9.58579 16.5832 10C16.5832 10.4142 16.2474 10.75 15.8332 10.75H4.1665C3.75229 10.75 3.4165 10.4142 3.4165 10Z" fill="#111C4E"/>
<path fill-rule="evenodd" clip-rule="evenodd" d="M9.46967 3.63642C9.76256 3.34352 10.2374 3.34352 10.5303 3.63642L16.3637 9.46975C16.6566 9.76264 16.6566 10.2375 16.3637 10.5304L10.5303 16.3637C10.2374 16.6566 9.76256 16.6566 9.46967 16.3637C9.17678 16.0709 9.17678 15.596 9.46967 15.3031L14.7727 10.0001L9.46967 4.69708C9.17678 4.40418 9.17678 3.92931 9.46967 3.63642Z" fill="#111C4E"/>
</svg>
