<svg width="20" height="20" viewBox="0 0 20 20" fill="none" xmlns="http://www.w3.org/2000/svg">
<path d="M16.3138 16.3734H3.68623C3.18771 16.3741 2.69917 16.2336 2.27717 15.9682C1.85517 15.7028 1.51696 15.3233 1.30169 14.8736C1.04969 14.3401 0.952633 13.7466 1.02157 13.1606C1.09051 12.5746 1.32268 12.0198 1.69162 11.5593L8.00539 3.91078C8.25316 3.62489 8.5595 3.39561 8.90364 3.23847C9.24778 3.08133 9.62168 3 10 3C10.3783 3 10.7522 3.08133 11.0964 3.23847C11.4405 3.39561 11.7468 3.62489 11.9946 3.91078L18.3084 11.5593C18.6773 12.0198 18.9095 12.5746 18.9784 13.1606C19.0474 13.7466 18.9503 14.3401 18.6983 14.8736C18.483 15.3233 18.1448 15.7028 17.7228 15.9682C17.3008 16.2336 16.8123 16.3741 16.3138 16.3734Z" fill="#111C4E"/>
</svg>
