<svg width="20" height="20" viewBox="0 0 20 20" fill="none" xmlns="http://www.w3.org/2000/svg">
<path d="M3.68623 2.99993L16.3138 2.99993C16.8123 2.99921 17.3008 3.13969 17.7228 3.40509C18.1448 3.6705 18.483 4.04999 18.6983 4.49964C18.9503 5.03315 19.0474 5.62672 18.9784 6.21271C18.9095 6.7987 18.6773 7.35354 18.3084 7.814L11.9946 15.4625C11.7468 15.7484 11.4405 15.9777 11.0964 16.1348C10.7522 16.292 10.3783 16.3733 10 16.3733C9.62168 16.3733 9.24778 16.292 8.90364 16.1348C8.5595 15.9777 8.25317 15.7484 8.00539 15.4625L1.69162 7.814C1.32268 7.35354 1.09051 6.7987 1.02157 6.21271C0.952634 5.62672 1.0497 5.03315 1.3017 4.49964C1.51697 4.04999 1.85518 3.6705 2.27718 3.40509C2.69917 3.13968 3.18771 2.99921 3.68623 2.99993Z" fill="#111C4E"/>
</svg>
