<svg width="20" height="20" viewBox="0 0 20 20" fill="none" xmlns="http://www.w3.org/2000/svg">
<path fill-rule="evenodd" clip-rule="evenodd" d="M6.92384 2.43661C7.06633 2.26562 7.27742 2.16675 7.5 2.16675H18.75C19.1642 2.16675 19.5 2.50253 19.5 2.91675V16.6667C19.5 17.081 19.1642 17.4167 18.75 17.4167H7.5C7.30109 17.4167 7.11033 17.3377 6.96967 17.1971L0.719674 10.9471C0.445385 10.6728 0.425509 10.2346 0.673838 9.93661L6.92384 2.43661ZM7.85128 3.66675L2.26464 10.3707L7.81066 15.9167H18V3.66675H7.85128ZM9.05301 6.55308C9.3459 6.26019 9.82077 6.26019 10.1137 6.55308L12.0833 8.52275L14.053 6.55308C14.3459 6.26019 14.8208 6.26019 15.1137 6.55308C15.4066 6.84598 15.4066 7.32085 15.1137 7.61374L13.144 9.58341L15.1137 11.5531C15.4066 11.846 15.4066 12.3209 15.1137 12.6137C14.8208 12.9066 14.3459 12.9066 14.053 12.6137L12.0833 10.6441L10.1137 12.6137C9.82077 12.9066 9.3459 12.9066 9.05301 12.6137C8.76011 12.3209 8.76011 11.846 9.05301 11.5531L11.0227 9.58341L9.05301 7.61374C8.76011 7.32085 8.76011 6.84598 9.05301 6.55308Z" fill="#292929"/>
</svg>
