<svg width="20" height="20" viewBox="0 0 20 20" fill="none" xmlns="http://www.w3.org/2000/svg">
<path fill-rule="evenodd" clip-rule="evenodd" d="M16.3635 3.63642C16.6564 3.92931 16.6564 4.40418 16.3635 4.69708L4.69683 16.3637C4.40394 16.6566 3.92907 16.6566 3.63617 16.3637C3.34328 16.0709 3.34328 15.596 3.63617 15.3031L15.3028 3.63642C15.5957 3.34352 16.0706 3.34352 16.3635 3.63642Z" fill="#111C4E"/>
<path fill-rule="evenodd" clip-rule="evenodd" d="M3.63617 3.63642C3.92907 3.34352 4.40394 3.34352 4.69683 3.63642L16.3635 15.3031C16.6564 15.596 16.6564 16.0709 16.3635 16.3637C16.0706 16.6566 15.5957 16.6566 15.3028 16.3637L3.63617 4.69708C3.34328 4.40418 3.34328 3.92931 3.63617 3.63642Z" fill="#111C4E"/>
</svg>
