<svg width="20" height="20" viewBox="0 0 20 20" fill="none" xmlns="http://www.w3.org/2000/svg">
<path fill-rule="evenodd" clip-rule="evenodd" d="M8.33333 8.25C6.90671 8.25 5.75 9.40671 5.75 10.8333V14.1667C5.75 15.5933 6.90671 16.75 8.33333 16.75H15.8333C17.26 16.75 18.4167 15.5933 18.4167 14.1667V10.8333C18.4167 10.0616 18.0792 9.36939 17.5414 8.89496C17.2307 8.62095 17.201 8.14701 17.475 7.83637C17.749 7.52574 18.223 7.49604 18.5336 7.77004C19.3808 8.51728 19.9167 9.61341 19.9167 10.8333V14.1667C19.9167 16.4217 18.0884 18.25 15.8333 18.25H8.33333C6.07829 18.25 4.25 16.4217 4.25 14.1667V10.8333C4.25 8.57829 6.07829 6.75 8.33333 6.75H11.6667C12.0809 6.75 12.4167 7.08579 12.4167 7.5C12.4167 7.91421 12.0809 8.25 11.6667 8.25H8.33333Z" fill="#111C4E"/>
<path fill-rule="evenodd" clip-rule="evenodd" d="M4.16683 3.25C2.74021 3.25 1.5835 4.40671 1.5835 5.83333V9.16667C1.5835 9.93841 1.92093 10.6306 2.45879 11.105C2.76943 11.379 2.79912 11.853 2.52512 12.1636C2.25112 12.4743 1.77717 12.504 1.46654 12.23C0.619398 11.4827 0.0834961 10.3866 0.0834961 9.16667V5.83333C0.0834961 3.57829 1.91178 1.75 4.16683 1.75H11.6668C13.9219 1.75 15.7502 3.57829 15.7502 5.83333V9.16667C15.7502 11.4217 13.9219 13.25 11.6668 13.25H8.3335C7.91928 13.25 7.5835 12.9142 7.5835 12.5C7.5835 12.0858 7.91928 11.75 8.3335 11.75H11.6668C13.0934 11.75 14.2502 10.5933 14.2502 9.16667V5.83333C14.2502 4.40671 13.0934 3.25 11.6668 3.25H4.16683Z" fill="#111C4E"/>
</svg>
