<svg width="20" height="20" viewBox="0 0 20 20" fill="none" xmlns="http://www.w3.org/2000/svg">
<path fill-rule="evenodd" clip-rule="evenodd" d="M4.25 10C4.25 9.58579 4.58579 9.25 5 9.25H15C15.4142 9.25 15.75 9.58579 15.75 10C15.75 10.4142 15.4142 10.75 15 10.75H5C4.58579 10.75 4.25 10.4142 4.25 10Z" fill="#111C4E"/>
<path fill-rule="evenodd" clip-rule="evenodd" d="M4.25 5.8335C4.25 5.41928 4.58579 5.0835 5 5.0835H15C15.4142 5.0835 15.75 5.41928 15.75 5.8335C15.75 6.24771 15.4142 6.5835 15 6.5835H5C4.58579 6.5835 4.25 6.24771 4.25 5.8335Z" fill="#111C4E"/>
<path fill-rule="evenodd" clip-rule="evenodd" d="M4.25 14.1667C4.25 13.7525 4.58579 13.4167 5 13.4167H15C15.4142 13.4167 15.75 13.7525 15.75 14.1667C15.75 14.581 15.4142 14.9167 15 14.9167H5C4.58579 14.9167 4.25 14.581 4.25 14.1667Z" fill="#111C4E"/>
<path fill-rule="evenodd" clip-rule="evenodd" d="M0.916504 3.16675C0.916504 1.9241 1.92386 0.916748 3.1665 0.916748H16.8332C18.0758 0.916748 19.0832 1.92411 19.0832 3.16675V16.8334C19.0832 18.0761 18.0758 19.0834 16.8332 19.0834H3.1665C1.92386 19.0834 0.916504 18.0761 0.916504 16.8334V3.16675ZM3.1665 2.41675C2.75229 2.41675 2.4165 2.75253 2.4165 3.16675V16.8334C2.4165 17.2476 2.75229 17.5834 3.1665 17.5834H16.8332C17.2474 17.5834 17.5832 17.2476 17.5832 16.8334V3.16675C17.5832 2.75253 17.2474 2.41675 16.8332 2.41675H3.1665Z" fill="#111C4E"/>
</svg>
