<svg width="20" height="20" viewBox="0 0 20 20" fill="none" xmlns="http://www.w3.org/2000/svg">
<path fill-rule="evenodd" clip-rule="evenodd" d="M19.1663 0.25C19.5805 0.25 19.9163 0.585786 19.9163 1V5.77248C19.9163 5.99294 19.8193 6.20224 19.6511 6.34474C19.4829 6.48724 19.2605 6.54852 19.043 6.51228L14.4071 5.7398C13.9985 5.67172 13.7225 5.28531 13.7906 4.87673C13.8587 4.46815 14.2451 4.19212 14.6537 4.2602L18.4163 4.88717V1C18.4163 0.585786 18.7521 0.25 19.1663 0.25Z" fill="#111C4E"/>
<path fill-rule="evenodd" clip-rule="evenodd" d="M7.54645 0.711267C9.81666 -0.140632 12.3203 -0.131231 14.5841 0.737694C16.8478 1.60662 18.7148 3.27484 19.8319 5.42696C20.0228 5.79459 19.8795 6.24732 19.5118 6.43816C19.1442 6.62899 18.6915 6.48567 18.5006 6.11804C17.5525 4.29145 15.9679 2.87557 14.0466 2.13808C12.1252 1.40058 10.0003 1.3926 8.07344 2.11564C6.14661 2.83869 4.55147 4.24263 3.58961 6.06204C2.62775 7.88146 2.36583 9.99023 2.85337 11.9897C3.34091 13.9891 4.54413 15.7406 6.23552 16.9131C7.92692 18.0855 9.98927 18.5976 12.0326 18.3526C14.076 18.1075 15.9588 17.1223 17.325 15.5831C17.6 15.2734 18.074 15.2452 18.3838 15.5201C18.6936 15.7951 18.7218 16.2691 18.4468 16.5789C16.8371 18.3923 14.6188 19.5532 12.2113 19.8419C9.80371 20.1306 7.37381 19.5272 5.38098 18.1458C3.38815 16.7645 1.9705 14.7008 1.39607 12.345C0.82164 9.98925 1.13024 7.50465 2.26352 5.36098C3.39681 3.21732 5.27623 1.56317 7.54645 0.711267Z" fill="#111C4E"/>
</svg>
