<svg width="20" height="20" viewBox="0 0 20 20" fill="none" xmlns="http://www.w3.org/2000/svg">
<path fill-rule="evenodd" clip-rule="evenodd" d="M0.833697 0.25C0.419484 0.25 0.0836973 0.585786 0.0836973 1V5.77248C0.0836973 5.99294 0.180694 6.20224 0.348906 6.34474C0.517118 6.48724 0.739509 6.54852 0.95697 6.51228L5.59288 5.7398C6.00146 5.67172 6.27749 5.28531 6.20941 4.87673C6.14133 4.46815 5.75492 4.19212 5.34634 4.2602L1.5837 4.88717V1C1.5837 0.585786 1.24791 0.25 0.833697 0.25Z" fill="#111C4E"/>
<path fill-rule="evenodd" clip-rule="evenodd" d="M12.4536 0.711267C10.1833 -0.140632 7.67966 -0.131231 5.41591 0.737694C3.15215 1.60662 1.28521 3.27484 0.168055 5.42696C-0.0227814 5.79459 0.120541 6.24732 0.488173 6.43816C0.855806 6.62899 1.30854 6.48567 1.49937 6.11804C2.44754 4.29145 4.03209 2.87557 5.95343 2.13808C7.87477 1.40058 9.99974 1.3926 11.9266 2.11564C13.8534 2.83869 15.4485 4.24263 16.4104 6.06204C17.3722 7.88146 17.6342 9.99023 17.1466 11.9897C16.6591 13.9891 15.4559 15.7406 13.7645 16.9131C12.0731 18.0855 10.0107 18.5976 7.96735 18.3526C5.92398 18.1075 4.0412 17.1223 2.67499 15.5831C2.40001 15.2734 1.92598 15.2452 1.6162 15.5201C1.30643 15.7951 1.27821 16.2691 1.55319 16.5789C3.16288 18.3923 5.3812 19.5532 7.78875 19.8419C10.1963 20.1306 12.6262 19.5272 14.619 18.1458C16.6119 16.7645 18.0295 14.7008 18.6039 12.345C19.1784 9.98925 18.8698 7.50465 17.7365 5.36098C16.6032 3.21732 14.7238 1.56317 12.4536 0.711267Z" fill="#111C4E"/>
</svg>
