<svg width="24" height="24" viewBox="0 0 24 24" fill="none" xmlns="http://www.w3.org/2000/svg">
<path fill-rule="evenodd" clip-rule="evenodd" d="M2.87581 23.0039C2.47571 22.8967 2.23828 22.4855 2.34548 22.0854L8.06539 0.7384C8.17259 0.338301 8.58384 0.100864 8.98394 0.20807C9.38404 0.315276 9.62148 0.726529 9.51427 1.12663L3.79437 22.4736C3.68716 22.8737 3.27591 23.1111 2.87581 23.0039Z" fill="#111C4E"/>
<path fill-rule="evenodd" clip-rule="evenodd" d="M9.07601 23.0039C8.67591 22.8967 8.43847 22.4855 8.54568 22.0854L14.2656 0.7384C14.3728 0.338301 14.784 0.100864 15.1841 0.20807C15.5842 0.315276 15.8217 0.726529 15.7145 1.12663L9.99457 22.4736C9.88736 22.8737 9.47611 23.1111 9.07601 23.0039Z" fill="#111C4E"/>
<path fill-rule="evenodd" clip-rule="evenodd" d="M16.7044 11.5405C17.0931 11.3973 17.5243 11.5963 17.6675 11.985L21.3489 21.9775C21.4921 22.3662 21.2931 22.7973 20.9044 22.9405C20.5158 23.0837 20.0846 22.8847 19.9414 22.4961L16.26 12.5036C16.1168 12.1149 16.3158 11.6837 16.7044 11.5405Z" fill="#111C4E"/>
</svg>
