<svg width="24" height="24" viewBox="0 0 24 24" fill="none" xmlns="http://www.w3.org/2000/svg">
<path fill-rule="evenodd" clip-rule="evenodd" d="M24.0005 15.5498C24.0005 15.964 23.6647 16.2998 23.2505 16.2998L0.750488 16.2998C0.336275 16.2998 0.000488281 15.964 0.000488281 15.5498C0.000488281 15.1356 0.336275 14.7998 0.750488 14.7998L23.2505 14.7998C23.6647 14.7998 24.0005 15.1356 24.0005 15.5498Z" fill="#111C4E"/>
<path fill-rule="evenodd" clip-rule="evenodd" d="M24.0005 7.75C24.0005 8.16421 23.6647 8.5 23.2505 8.5L0.750488 8.5C0.336275 8.5 0.000488281 8.16421 0.000488281 7.75C0.000488281 7.33579 0.336275 7 0.750488 7L23.2505 7C23.6647 7 24.0005 7.33579 24.0005 7.75Z" fill="#111C4E"/>
</svg>
