<svg width="20" height="20" viewBox="0 0 20 20" fill="none" xmlns="http://www.w3.org/2000/svg">
<path fill-rule="evenodd" clip-rule="evenodd" d="M5.0835 5C5.0835 4.58579 5.41928 4.25 5.8335 4.25H12.5002C12.9144 4.25 13.2502 4.58579 13.2502 5C13.2502 5.41421 12.9144 5.75 12.5002 5.75H5.8335C5.41928 5.75 5.0835 5.41421 5.0835 5Z" fill="#111C4E"/>
<path fill-rule="evenodd" clip-rule="evenodd" d="M4.11547 6.56322C4.48596 6.37799 4.93646 6.52818 5.12168 6.89867L9.00418 14.6645C9.18941 15.035 9.03922 15.4855 8.66873 15.6707C8.29824 15.8559 7.84774 15.7058 7.66251 15.3353L3.78001 7.56943C3.59479 7.19894 3.74497 6.74844 4.11547 6.56322Z" fill="#111C4E"/>
<path fill-rule="evenodd" clip-rule="evenodd" d="M3.3335 3.25C2.367 3.25 1.5835 4.0335 1.5835 5C1.5835 5.9665 2.367 6.75 3.3335 6.75C4.29999 6.75 5.0835 5.9665 5.0835 5C5.0835 4.0335 4.29999 3.25 3.3335 3.25ZM0.0834961 5C0.0834961 3.20507 1.53857 1.75 3.3335 1.75C5.12842 1.75 6.5835 3.20507 6.5835 5C6.5835 6.79493 5.12842 8.25 3.3335 8.25C1.53857 8.25 0.0834961 6.79493 0.0834961 5Z" fill="#111C4E"/>
<path fill-rule="evenodd" clip-rule="evenodd" d="M13.4958 1.33115C13.6471 1.02864 13.9821 0.864796 14.3138 0.931126L18.4804 1.76446C18.8866 1.84569 19.15 2.24081 19.0688 2.64698C18.9875 3.05315 18.5924 3.31656 18.1862 3.23533L14.5813 2.51434L13.3385 4.99989L14.5813 7.48545L18.1862 6.76446C18.5924 6.68322 18.9875 6.94664 19.0688 7.35281C19.15 7.75898 18.8866 8.1541 18.4804 8.23533L14.3138 9.06866C13.9821 9.13499 13.6471 8.97115 13.4958 8.66864L11.8292 5.3353C11.7236 5.12416 11.7236 4.87563 11.8292 4.66448L13.4958 1.33115Z" fill="#111C4E"/>
<path fill-rule="evenodd" clip-rule="evenodd" d="M0.916992 15C0.916992 14.5858 1.25278 14.25 1.66699 14.25H15.0003C15.4145 14.25 15.7503 14.5858 15.7503 15V18.3333C15.7503 18.7475 15.4145 19.0833 15.0003 19.0833H1.66699C1.25278 19.0833 0.916992 18.7475 0.916992 18.3333V15ZM2.41699 15.75V17.5833H14.2503V15.75H2.41699Z" fill="#111C4E"/>
</svg>
