<svg width="24" height="24" viewBox="0 0 24 24" fill="none" xmlns="http://www.w3.org/2000/svg">
<path fill-rule="evenodd" clip-rule="evenodd" d="M10.0996 1.5V15.5578H15.0996V1.5H10.0996ZM9.95028 0C9.20432 0 8.59961 0.604714 8.59961 1.35067V15.7071C8.59961 16.4531 9.20432 17.0578 9.95028 17.0578H15.2489C15.9949 17.0578 16.5996 16.4531 16.5996 15.7071V1.35067C16.5996 0.604714 15.9949 0 15.2489 0H9.95028Z" fill="#111C4E"/>
<path fill-rule="evenodd" clip-rule="evenodd" d="M12.4502 16C12.8644 16 13.2002 16.3358 13.2002 16.75L13.2002 23.25C13.2002 23.6642 12.8644 24 12.4502 24C12.036 24 11.7002 23.6642 11.7002 23.25L11.7002 16.75C11.7002 16.3358 12.036 16 12.4502 16Z" fill="#111C4E"/>
</svg>
