<svg width="24" height="24" viewBox="0 0 24 24" fill="none" xmlns="http://www.w3.org/2000/svg">
<path fill-rule="evenodd" clip-rule="evenodd" d="M3.1001 2.5V21.5H9.1001V2.5H3.1001ZM2.95076 1C2.20481 1 1.6001 1.60471 1.6001 2.35067V21.6493C1.6001 22.3953 2.20481 23 2.95077 23H9.24943C9.99539 23 10.6001 22.3953 10.6001 21.6493V2.35067C10.6001 1.60471 9.99539 1 9.24943 1H2.95076Z" fill="#111C4E"/>
<path fill-rule="evenodd" clip-rule="evenodd" d="M14.8999 2.5V21.5H20.8999V2.5H14.8999ZM14.7506 1C14.0046 1 13.3999 1.60471 13.3999 2.35067V21.6493C13.3999 22.3953 14.0046 23 14.7506 23H21.0492C21.7952 23 22.3999 22.3953 22.3999 21.6493V2.35067C22.3999 1.60471 21.7952 1 21.0492 1H14.7506Z" fill="#111C4E"/>
</svg>
