<svg width="24" height="24" viewBox="0 0 24 24" fill="none" xmlns="http://www.w3.org/2000/svg">
<path fill-rule="evenodd" clip-rule="evenodd" d="M0.75 -3.75189e-08C1.16421 -1.67978e-08 1.5 0.335786 1.5 0.75L1.5 23.25C1.5 23.6642 1.16421 24 0.749999 24C0.335786 24 -9.03841e-07 23.6642 -8.8802e-07 23.25L-2.86458e-08 0.75C-1.28252e-08 0.335786 0.335786 -5.82401e-08 0.75 -3.75189e-08Z" fill="#111C4E"/>
<path fill-rule="evenodd" clip-rule="evenodd" d="M7.9502 -3.32809e-08C8.36441 -1.49004e-08 8.7002 0.335786 8.7002 0.75L8.70019 23.25C8.70019 23.6642 8.36441 24 7.95019 24C7.53598 24 7.20019 23.6642 7.20019 23.25L7.2002 0.75C7.2002 0.335786 7.53598 -5.16615e-08 7.9502 -3.32809e-08Z" fill="#111C4E"/>
<path fill-rule="evenodd" clip-rule="evenodd" d="M15.1499 -3.32809e-08C15.5641 -1.49004e-08 15.8999 0.335786 15.8999 0.75L15.8999 23.25C15.8999 23.6642 15.5641 24 15.1499 24C14.7357 24 14.3999 23.6642 14.3999 23.25L14.3999 0.75C14.3999 0.335786 14.7357 -5.16615e-08 15.1499 -3.32809e-08Z" fill="#111C4E"/>
<path fill-rule="evenodd" clip-rule="evenodd" d="M22.3501 -3.32809e-08C22.7643 -1.49004e-08 23.1001 0.335786 23.1001 0.75L23.1001 23.25C23.1001 23.6642 22.7643 24 22.3501 24C21.9359 24 21.6001 23.6642 21.6001 23.25L21.6001 0.75C21.6001 0.335786 21.9359 -5.16615e-08 22.3501 -3.32809e-08Z" fill="#111C4E"/>
</svg>
