<svg width="24" height="24" viewBox="0 0 24 24" fill="none" xmlns="http://www.w3.org/2000/svg">
<path fill-rule="evenodd" clip-rule="evenodd" d="M1.7002 1.5V22.3H22.3002V1.5H1.7002ZM1.55086 0C0.80491 0 0.200195 0.604716 0.200195 1.35067V22.4493C0.200195 23.1953 0.804909 23.8 1.55086 23.8H22.4495C23.1955 23.8 23.8002 23.1953 23.8002 22.4493V1.35067C23.8002 0.604714 23.1955 0 22.4495 0H1.55086Z" fill="#111C4E"/>
<path fill-rule="evenodd" clip-rule="evenodd" d="M12.0007 17.3002C14.9278 17.3002 17.3007 14.9273 17.3007 12.0002C17.3007 9.07309 14.9278 6.7002 12.0007 6.7002C9.07358 6.7002 6.70068 9.07309 6.70068 12.0002C6.70068 14.9273 9.07358 17.3002 12.0007 17.3002ZM12.0007 18.8002C15.7562 18.8002 18.8007 15.7557 18.8007 12.0002C18.8007 8.24466 15.7562 5.2002 12.0007 5.2002C8.24515 5.2002 5.20068 8.24466 5.20068 12.0002C5.20068 15.7557 8.24515 18.8002 12.0007 18.8002Z" fill="#111C4E"/>
</svg>
