<svg width="24" height="24" viewBox="0 0 24 24" fill="none" xmlns="http://www.w3.org/2000/svg">
<path fill-rule="evenodd" clip-rule="evenodd" d="M12.0007 22.3C17.6892 22.3 22.3007 17.6885 22.3007 12C22.3007 6.31142 17.6892 1.69995 12.0007 1.69995C6.31215 1.69995 1.70068 6.31142 1.70068 12C1.70068 17.6885 6.31215 22.3 12.0007 22.3ZM12.0007 23.8C18.5177 23.8 23.8007 18.5169 23.8007 12C23.8007 5.48299 18.5177 0.199951 12.0007 0.199951C5.48373 0.199951 0.200684 5.48299 0.200684 12C0.200684 18.5169 5.48373 23.8 12.0007 23.8Z" fill="#111C4E"/>
<path fill-rule="evenodd" clip-rule="evenodd" d="M20.2005 5.19987L4.4005 20.9999L3.33984 19.9392L19.1398 4.13921L20.2005 5.19987Z" fill="#111C4E"/>
<path fill-rule="evenodd" clip-rule="evenodd" d="M19.2008 20.2L3.40077 4.40002L4.46143 3.33936L20.2614 19.1394L19.2008 20.2Z" fill="#111C4E"/>
</svg>
