<svg width="20" height="20" viewBox="0 0 20 20" fill="none" xmlns="http://www.w3.org/2000/svg">
<path fill-rule="evenodd" clip-rule="evenodd" d="M18.8635 1.13642C19.1564 1.42931 19.1564 1.90418 18.8635 2.19708L12.1968 8.86374C11.9039 9.15664 11.4291 9.15664 11.1362 8.86374C10.8433 8.57085 10.8433 8.09598 11.1362 7.80308L17.8028 1.13642C18.0957 0.843525 18.5706 0.843525 18.8635 1.13642Z" fill="#111C4E"/>
<path fill-rule="evenodd" clip-rule="evenodd" d="M10.9165 1.66675C10.9165 1.25253 11.2523 0.916748 11.6665 0.916748H18.3332C18.7474 0.916748 19.0832 1.25253 19.0832 1.66675V8.33341C19.0832 8.74763 18.7474 9.08341 18.3332 9.08341C17.919 9.08341 17.5832 8.74763 17.5832 8.33341V2.41675H11.6665C11.2523 2.41675 10.9165 2.08096 10.9165 1.66675Z" fill="#111C4E"/>
<path fill-rule="evenodd" clip-rule="evenodd" d="M8.8635 11.1364C9.15639 11.4293 9.15639 11.9042 8.8635 12.1971L2.19683 18.8637C1.90394 19.1566 1.42907 19.1566 1.13617 18.8637C0.843281 18.5709 0.843281 18.096 1.13617 17.8031L7.80284 11.1364C8.09573 10.8435 8.57061 10.8435 8.8635 11.1364Z" fill="#111C4E"/>
<path fill-rule="evenodd" clip-rule="evenodd" d="M1.6665 10.9167C2.08072 10.9167 2.4165 11.2525 2.4165 11.6667V17.5834H8.33317C8.74738 17.5834 9.08317 17.9192 9.08317 18.3334C9.08317 18.7476 8.74738 19.0834 8.33317 19.0834H1.6665C1.25229 19.0834 0.916504 18.7476 0.916504 18.3334V11.6667C0.916504 11.2525 1.25229 10.9167 1.6665 10.9167Z" fill="#111C4E"/>
</svg>
