<svg width="20" height="20" viewBox="0 0 20 20" fill="none" xmlns="http://www.w3.org/2000/svg">
<path fill-rule="evenodd" clip-rule="evenodd" d="M5.83301 5.91675C6.24722 5.91675 6.58301 6.25253 6.58301 6.66675V17.5001C6.58301 17.9143 6.24722 18.2501 5.83301 18.2501C5.41879 18.2501 5.08301 17.9143 5.08301 17.5001V6.66675C5.08301 6.25253 5.41879 5.91675 5.83301 5.91675Z" fill="#111C4E"/>
<path fill-rule="evenodd" clip-rule="evenodd" d="M10 10.0833C10.4142 10.0833 10.75 10.419 10.75 10.8333V17.4999C10.75 17.9141 10.4142 18.2499 10 18.2499C9.58579 18.2499 9.25 17.9141 9.25 17.4999V10.8333C9.25 10.419 9.58579 10.0833 10 10.0833Z" fill="#111C4E"/>
<path fill-rule="evenodd" clip-rule="evenodd" d="M14.1665 5.91675C14.5807 5.91675 14.9165 6.25253 14.9165 6.66675V17.5001C14.9165 17.9143 14.5807 18.2501 14.1665 18.2501C13.7523 18.2501 13.4165 17.9143 13.4165 17.5001V6.66675C13.4165 6.25253 13.7523 5.91675 14.1665 5.91675Z" fill="#111C4E"/>
<path fill-rule="evenodd" clip-rule="evenodd" d="M18.333 10.0833C18.7472 10.0833 19.083 10.419 19.083 10.8333V17.4999C19.083 17.9141 18.7472 18.2499 18.333 18.2499C17.9188 18.2499 17.583 17.9141 17.583 17.4999V10.8333C17.583 10.419 17.9188 10.0833 18.333 10.0833Z" fill="#111C4E"/>
<path fill-rule="evenodd" clip-rule="evenodd" d="M1.6665 1.75C2.08072 1.75 2.4165 2.08579 2.4165 2.5V17.5C2.4165 17.9142 2.08072 18.25 1.6665 18.25C1.25229 18.25 0.916504 17.9142 0.916504 17.5V2.5C0.916504 2.08579 1.25229 1.75 1.6665 1.75Z" fill="#111C4E"/>
</svg>
