<svg width="20" height="20" viewBox="0 0 20 20" fill="none" xmlns="http://www.w3.org/2000/svg">
<path fill-rule="evenodd" clip-rule="evenodd" d="M10.0002 1.67495C5.40242 1.67495 1.6752 5.40218 1.6752 9.99995C1.6752 14.5977 5.40242 18.3249 10.0002 18.3249C14.598 18.3249 18.3252 14.5977 18.3252 9.99995C18.3252 5.40218 14.598 1.67495 10.0002 1.67495ZM0.325195 9.99995C0.325195 4.6566 4.65684 0.324951 10.0002 0.324951C15.3436 0.324951 19.6752 4.6566 19.6752 9.99995C19.6752 15.3433 15.3436 19.6749 10.0002 19.6749C4.65684 19.6749 0.325195 15.3433 0.325195 9.99995Z" fill="black"/>
<path fill-rule="evenodd" clip-rule="evenodd" d="M10.2577 6.27417C9.80385 6.19632 9.33706 6.28161 8.94004 6.51494C8.54301 6.74828 8.24138 7.11459 8.08856 7.54901C7.95111 7.93975 7.52292 8.14508 7.13218 8.00762C6.74144 7.87017 6.53611 7.44198 6.67356 7.05124C6.94393 6.28266 7.47759 5.63456 8.18001 5.22174C8.88243 4.80892 9.70829 4.65802 10.5113 4.79576C11.3143 4.9335 12.0427 5.35099 12.5674 5.9743C13.092 6.59743 13.3791 7.38607 13.3781 8.20059C13.3778 9.49848 12.4143 10.369 11.6941 10.8492C11.3111 11.1045 10.9335 11.2928 10.6545 11.4167C10.514 11.4792 10.3959 11.5265 10.3111 11.5588C10.2686 11.575 10.2344 11.5874 10.2096 11.5962L10.1798 11.6067L10.1706 11.6098L10.1674 11.6109L10.1662 11.6113C10.166 11.6114 10.1652 11.6116 9.93689 10.9266L10.1652 11.6116C9.77228 11.7426 9.34754 11.5303 9.21655 11.1373C9.08572 10.7448 9.29745 10.3206 9.68954 10.1891C9.68999 10.1889 9.69044 10.1888 9.69089 10.1886L9.92806 10.9001C9.69089 10.1886 9.69108 10.1885 9.69089 10.1886L9.70713 10.1829C9.72196 10.1776 9.74571 10.169 9.77708 10.1571C9.83996 10.1331 9.93274 10.0961 10.0453 10.046C10.2726 9.94499 10.57 9.79577 10.862 9.60109C11.4917 9.18129 11.8781 8.70197 11.8781 8.20012L11.8781 8.19901C11.8788 7.7385 11.7164 7.2926 11.4199 6.9403C11.1233 6.588 10.7116 6.35202 10.2577 6.27417Z" fill="black"/>
<path fill-rule="evenodd" clip-rule="evenodd" d="M9.25 14.5C9.25 14.0858 9.58579 13.75 10 13.75H10.01C10.4242 13.75 10.76 14.0858 10.76 14.5C10.76 14.9142 10.4242 15.25 10.01 15.25H10C9.58579 15.25 9.25 14.9142 9.25 14.5Z" fill="black"/>
</svg>
