<svg width="20" height="20" viewBox="0 0 20 20" fill="none" xmlns="http://www.w3.org/2000/svg">
<path fill-rule="evenodd" clip-rule="evenodd" d="M17.1972 2.80292C17.4901 3.09582 17.4901 3.57069 17.1972 3.86358L9.86383 11.1969C9.57093 11.4898 9.09606 11.4898 8.80317 11.1969C8.51027 10.904 8.51027 10.4291 8.80317 10.1363L16.1365 2.80292C16.4294 2.51003 16.9043 2.51003 17.1972 2.80292Z" fill="#111C4E"/>
<path fill-rule="evenodd" clip-rule="evenodd" d="M10.583 3.33325C10.583 2.91904 10.9188 2.58325 11.333 2.58325H16.6663C17.0806 2.58325 17.4163 2.91904 17.4163 3.33325V8.66659C17.4163 9.0808 17.0806 9.41659 16.6663 9.41659C16.2521 9.41659 15.9163 9.0808 15.9163 8.66659V4.08325H11.333C10.9188 4.08325 10.583 3.74747 10.583 3.33325Z" fill="#111C4E"/>
<path fill-rule="evenodd" clip-rule="evenodd" d="M3.3335 2.58325C3.74771 2.58325 4.0835 2.91904 4.0835 3.33325V15.9166H16.6668C17.081 15.9166 17.4168 16.2524 17.4168 16.6666C17.4168 17.0808 17.081 17.4166 16.6668 17.4166H3.3335C2.91928 17.4166 2.5835 17.0808 2.5835 16.6666V3.33325C2.5835 2.91904 2.91928 2.58325 3.3335 2.58325Z" fill="#111C4E"/>
</svg>
