<svg width="20" height="20" viewBox="0 0 20 20" fill="none" xmlns="http://www.w3.org/2000/svg">
<path fill-rule="evenodd" clip-rule="evenodd" d="M5.0835 10C5.0835 9.58579 5.41928 9.25 5.8335 9.25L18.3335 9.25C18.7477 9.25 19.0835 9.58579 19.0835 10C19.0835 10.4142 18.7477 10.75 18.3335 10.75L5.8335 10.75C5.41928 10.75 5.0835 10.4142 5.0835 10Z" fill="#111C4E"/>
<path fill-rule="evenodd" clip-rule="evenodd" d="M11.3638 4.46967C11.6567 4.76256 11.6567 5.23744 11.3638 5.53033L6.89416 10L11.3638 14.4697C11.6567 14.7626 11.6567 15.2374 11.3638 15.5303C11.0709 15.8232 10.5961 15.8232 10.3032 15.5303L5.30317 10.5303C5.01027 10.2374 5.01027 9.76256 5.30317 9.46967L10.3032 4.46967C10.5961 4.17678 11.0709 4.17678 11.3638 4.46967Z" fill="#111C4E"/>
<path fill-rule="evenodd" clip-rule="evenodd" d="M1.66699 19.0833C1.25278 19.0833 0.916992 18.7475 0.916992 18.3333L0.916992 1.66659C0.916992 1.25237 1.25278 0.916586 1.66699 0.916586C2.08121 0.916586 2.41699 1.25237 2.41699 1.66659L2.41699 18.3333C2.41699 18.7475 2.08121 19.0833 1.66699 19.0833Z" fill="#111C4E"/>
</svg>
