<svg width="20" height="20" viewBox="0 0 20 20" fill="none" xmlns="http://www.w3.org/2000/svg">
<path fill-rule="evenodd" clip-rule="evenodd" d="M14.9165 10C14.9165 10.4142 14.5807 10.75 14.1665 10.75L1.6665 10.75C1.25229 10.75 0.916504 10.4142 0.916504 10C0.916504 9.58579 1.25229 9.25 1.6665 9.25L14.1665 9.25C14.5807 9.25 14.9165 9.58579 14.9165 10Z" fill="#111C4E"/>
<path fill-rule="evenodd" clip-rule="evenodd" d="M8.63617 15.5303C8.34328 15.2374 8.34328 14.7626 8.63617 14.4697L13.1058 10L8.63617 5.53033C8.34328 5.23744 8.34328 4.76256 8.63617 4.46967C8.92907 4.17678 9.40394 4.17678 9.69683 4.46967L14.6968 9.46967C14.9897 9.76256 14.9897 10.2374 14.6968 10.5303L9.69683 15.5303C9.40394 15.8232 8.92907 15.8232 8.63617 15.5303Z" fill="#111C4E"/>
<path fill-rule="evenodd" clip-rule="evenodd" d="M18.333 0.916748C18.7472 0.916748 19.083 1.25253 19.083 1.66675V18.3334C19.083 18.7476 18.7472 19.0834 18.333 19.0834C17.9188 19.0834 17.583 18.7476 17.583 18.3334V1.66675C17.583 1.25253 17.9188 0.916748 18.333 0.916748Z" fill="#111C4E"/>
</svg>
