<svg width="20" height="20" viewBox="0 0 20 20" fill="none" xmlns="http://www.w3.org/2000/svg">
<path fill-rule="evenodd" clip-rule="evenodd" d="M9.93538 7.66675C8.64672 7.66675 7.60205 8.71142 7.60205 10.0001C7.60205 11.2887 8.64672 12.3334 9.93538 12.3334C11.224 12.3334 12.2687 11.2887 12.2687 10.0001C12.2687 8.71142 11.224 7.66675 9.93538 7.66675ZM6.10205 10.0001C6.10205 7.88299 7.81829 6.16675 9.93538 6.16675C12.0525 6.16675 13.7687 7.88299 13.7687 10.0001C13.7687 12.1172 12.0525 13.8334 9.93538 13.8334C7.81829 13.8334 6.10205 12.1172 6.10205 10.0001Z" fill="#111C4E"/>
<path fill-rule="evenodd" clip-rule="evenodd" d="M7.33563 0.75C7.33563 0.335786 7.67141 0 8.08563 0H11.7856C12.1998 0 12.5356 0.335786 12.5356 0.75V2.93458C13.3514 3.23383 14.1007 3.66939 14.7556 4.21523L16.646 3.12344C16.8183 3.02395 17.023 2.99697 17.2152 3.04844C17.4073 3.09991 17.5712 3.22561 17.6706 3.39789L19.5206 6.60209C19.7277 6.96079 19.6049 7.41946 19.2462 7.62659L17.3541 8.71919C17.4273 9.13207 17.469 9.55925 17.469 10C17.469 10.4405 17.4272 10.868 17.3549 11.2811L19.2486 12.3746C19.6073 12.5818 19.7302 13.0404 19.5231 13.3991L17.6731 16.6033C17.466 16.962 17.0074 17.0849 16.6486 16.8779L14.7564 15.7856C14.1013 16.3307 13.3526 16.7662 12.5369 17.0662V19.25C12.5369 19.6642 12.2011 20 11.7869 20H8.08686C7.67265 20 7.33686 19.6642 7.33686 19.25V17.0654C6.521 16.7662 5.77168 16.3306 5.11676 15.7847L3.22507 16.8766C2.86636 17.0837 2.40771 16.9608 2.20061 16.6021L0.350611 13.3979C0.14351 13.0392 0.266386 12.5805 0.625069 12.3734L2.51718 11.2808C2.44392 10.8675 2.40229 10.44 2.40229 10C2.40229 9.55925 2.44391 9.13207 2.51714 8.71919L0.625069 7.62659C0.266386 7.41946 0.14351 6.96079 0.350611 6.60209L2.20061 3.39789C2.30008 3.22561 2.46391 3.09991 2.65607 3.04844C2.84822 2.99697 3.05296 3.02395 3.22522 3.12344L5.11591 4.21539C5.77132 3.66955 6.52051 3.23389 7.33563 2.934V0.75ZM8.83562 1.5V3.47813C8.83562 3.81349 8.613 4.10809 8.29038 4.19964C7.31626 4.47608 6.442 4.98831 5.7343 5.67516C5.49367 5.90871 5.12725 5.95414 4.83686 5.78643L3.12458 4.79751L2.02462 6.70264L3.73948 7.69291C4.0295 7.86039 4.17334 8.19984 4.09193 8.5247C3.9716 9.00491 3.90229 9.49593 3.90229 10C3.90229 10.5029 3.97162 10.9952 4.09193 11.4753C4.17334 11.8002 4.0295 12.1396 3.73948 12.3071L2.02462 13.2974L3.12467 15.2026L4.83824 14.2135C5.1288 14.0458 5.49539 14.0914 5.73595 14.3252C6.44213 15.0117 7.3159 15.5236 8.29065 15.7989C8.61374 15.8901 8.83686 16.1849 8.83686 16.5206V18.5H11.0369V16.5219C11.0369 16.1864 11.2596 15.8918 11.5823 15.8003C12.5573 15.5239 13.4306 15.0118 14.1386 14.3257C14.3792 14.0925 14.7453 14.0472 15.0355 14.2147L16.7491 15.2039L17.8491 13.2986L16.1342 12.3083C15.8454 12.1415 15.7014 11.804 15.7809 11.4801C15.8996 10.9963 15.969 10.5029 15.969 10C15.969 9.49593 15.8996 9.00491 15.7793 8.5247C15.6979 8.19984 15.8418 7.86039 16.1318 7.69291L17.8466 6.70264L16.7467 4.79751L15.0344 5.78643C14.7438 5.95425 14.3771 5.90864 14.1365 5.67476C13.4304 4.98832 12.5566 4.47636 11.5818 4.20115C11.2587 4.10993 11.0356 3.8151 11.0356 3.47937V1.5H8.83562Z" fill="#111C4E"/>
</svg>
