<svg width="20" height="20" viewBox="0 0 20 20" fill="none" xmlns="http://www.w3.org/2000/svg">
<rect width="20" height="20" fill="white"/>
<path d="M14.1668 7.50008V5.83341C14.1668 4.72835 13.7278 3.66854 12.9464 2.88714C12.165 2.10573 11.1052 1.66675 10.0002 1.66675C8.89509 1.66675 7.83529 2.10573 7.05388 2.88714C6.27248 3.66854 5.8335 4.72835 5.8335 5.83341V7.50008C5.17045 7.50008 4.53457 7.76347 4.06573 8.23231C3.59689 8.70116 3.3335 9.33704 3.3335 10.0001V15.8334C3.3335 16.4965 3.59689 17.1323 4.06573 17.6012C4.53457 18.07 5.17045 18.3334 5.8335 18.3334H14.1668C14.8299 18.3334 15.4658 18.07 15.9346 17.6012C16.4034 17.1323 16.6668 16.4965 16.6668 15.8334V10.0001C16.6668 9.33704 16.4034 8.70116 15.9346 8.23231C15.4658 7.76347 14.8299 7.50008 14.1668 7.50008ZM7.50016 5.83341C7.50016 5.17037 7.76355 4.53449 8.2324 4.06565C8.70124 3.59681 9.33712 3.33341 10.0002 3.33341C10.6632 3.33341 11.2991 3.59681 11.7679 4.06565C12.2368 4.53449 12.5002 5.17037 12.5002 5.83341V7.50008H7.50016V5.83341ZM15.0002 15.8334C15.0002 16.0544 14.9124 16.2664 14.7561 16.4227C14.5998 16.579 14.3878 16.6667 14.1668 16.6667H5.8335C5.61248 16.6667 5.40052 16.579 5.24424 16.4227C5.08796 16.2664 5.00016 16.0544 5.00016 15.8334V10.0001C5.00016 9.77907 5.08796 9.56711 5.24424 9.41083C5.40052 9.25455 5.61248 9.16675 5.8335 9.16675H14.1668C14.3878 9.16675 14.5998 9.25455 14.7561 9.41083C14.9124 9.56711 15.0002 9.77907 15.0002 10.0001V15.8334Z" fill="#111C4E"/>
</svg>
