<svg width="20" height="20" viewBox="0 0 20 20" fill="none" xmlns="http://www.w3.org/2000/svg">
<path fill-rule="evenodd" clip-rule="evenodd" d="M0.0834961 7.5C0.0834961 7.08579 0.419283 6.75 0.833496 6.75H19.1668C19.581 6.75 19.9168 7.08579 19.9168 7.5C19.9168 7.91421 19.581 8.25 19.1668 8.25H0.833496C0.419283 8.25 0.0834961 7.91421 0.0834961 7.5Z" fill="#111C4E"/>
<path fill-rule="evenodd" clip-rule="evenodd" d="M2.50016 3.25C1.9939 3.25 1.5835 3.66041 1.5835 4.16667V17.5C1.5835 18.0063 1.9939 18.4167 2.50016 18.4167H17.5002C18.0064 18.4167 18.4168 18.0063 18.4168 17.5V4.16667C18.4168 3.66041 18.0064 3.25 17.5002 3.25H2.50016ZM0.0834961 4.16667C0.0834961 2.83198 1.16547 1.75 2.50016 1.75H17.5002C18.8349 1.75 19.9168 2.83198 19.9168 4.16667V17.5C19.9168 18.8347 18.8349 19.9167 17.5002 19.9167H2.50016C1.16548 19.9167 0.0834961 18.8347 0.0834961 17.5V4.16667Z" fill="#111C4E"/>
<path fill-rule="evenodd" clip-rule="evenodd" d="M5.00053 0.083252C5.41475 0.0833556 5.75045 0.419226 5.75034 0.833439L5.74951 4.16677C5.74941 4.58099 5.41354 4.91669 4.99932 4.91658C4.58511 4.91648 4.24941 4.58061 4.24951 4.1664L4.25035 0.833064C4.25045 0.418851 4.58632 0.0831484 5.00053 0.083252Z" fill="#111C4E"/>
<path fill-rule="evenodd" clip-rule="evenodd" d="M15.0005 0.083252C15.4147 0.0833555 15.7504 0.419226 15.7503 0.833439L15.7495 4.16677C15.7494 4.58099 15.4135 4.91669 14.9993 4.91658C14.5851 4.91648 14.2494 4.58061 14.2495 4.1664L14.2503 0.833065C14.2504 0.418851 14.5863 0.0831485 15.0005 0.083252Z" fill="#111C4E"/>
</svg>
