<svg width="20" height="20" viewBox="0 0 20 20" fill="none" xmlns="http://www.w3.org/2000/svg">
<path fill-rule="evenodd" clip-rule="evenodd" d="M13.9338 0.119566C14.703 0.0157906 15.486 0.124027 16.1984 0.432781C16.4265 0.531655 16.5908 0.737152 16.637 0.981441C16.6833 1.22573 16.6054 1.47706 16.4292 1.65246L14.3971 3.67536L16.3328 5.59815L18.3692 3.57031C18.5498 3.39055 18.8092 3.31472 19.0581 3.36895C19.307 3.42318 19.5114 3.60005 19.6008 3.83861C19.9856 4.86579 20.0213 5.99112 19.7024 7.04053C19.4239 7.99767 18.8901 8.86097 18.1582 9.53774C17.425 10.2157 16.5207 10.6808 15.5428 10.8829C15.5288 10.8858 15.5147 10.8883 15.5006 10.8904C14.752 11.001 13.991 10.9767 13.2533 10.82L6.29271 18.6453C6.20327 18.7529 6.10736 18.8549 6.0055 18.9509C5.67524 19.2666 5.28614 19.5145 4.86031 19.6803C4.43332 19.8465 3.97775 19.927 3.51964 19.9172C3.06153 19.9073 2.60985 19.8073 2.1904 19.6228C1.77095 19.4384 1.39196 19.1731 1.07506 18.8421L1.0656 18.8322C1.06457 18.8311 1.06293 18.8292 1.06063 18.8267C1.04821 18.8134 1.01908 18.7823 0.993135 18.7523C0.360994 18.0406 0.0364839 17.1073 0.0908354 16.1567C0.145322 15.2038 0.576092 14.3116 1.2884 13.6762L1.2918 13.6732L9.13224 6.76518C9.03512 6.39854 8.98709 6.01982 8.99005 5.63896C8.96168 4.26278 9.45712 2.92701 10.3764 1.90208C11.294 0.87895 12.5654 0.242105 13.9338 0.119566ZM14.3714 1.58447C14.288 1.58847 14.2046 1.59626 14.1214 1.60787C14.1083 1.60971 14.095 1.6112 14.0818 1.61234C13.0861 1.69787 12.1603 2.15962 11.493 2.90362C10.8257 3.64762 10.467 4.61794 10.4899 5.61708C10.4901 5.62549 10.4902 5.6339 10.4901 5.64231C10.4861 6.0106 10.5557 6.37598 10.6947 6.71706C10.8151 7.01255 10.7353 7.35188 10.4959 7.56283L2.28685 14.7956C2.28632 14.7961 2.2858 14.7966 2.28527 14.797C1.87077 15.1675 1.62013 15.6873 1.58839 16.2424C1.55661 16.7981 1.7469 17.3438 2.11739 17.7593L2.12856 17.7721C2.12904 17.7726 2.13139 17.7754 2.1382 17.7828L2.16203 17.8084C2.34194 17.9953 2.55672 18.1453 2.79425 18.2498C3.03333 18.3549 3.29079 18.4119 3.55191 18.4175C3.81303 18.4231 4.0727 18.3773 4.31609 18.2825C4.55947 18.1877 4.7818 18.046 4.97038 17.8652L4.9756 17.8602C5.03569 17.8038 5.09215 17.7435 5.14458 17.6799C5.15061 17.6726 5.15677 17.6654 5.16307 17.6583L12.4347 9.48329C12.6276 9.26652 12.9281 9.1804 13.2065 9.26215C13.8726 9.45779 14.5729 9.50803 15.26 9.40959C15.9627 9.26043 16.6122 8.92425 17.1399 8.43638C17.6727 7.94369 18.0611 7.31499 18.2631 6.61796L18.266 6.60787C18.3625 6.29154 18.413 5.96533 18.4177 5.63895L16.8627 7.18738C16.5703 7.47852 16.0976 7.47881 15.8049 7.18803L12.8049 4.20803C12.6633 4.06733 12.5836 3.87597 12.5835 3.67633C12.5833 3.47668 12.6628 3.28524 12.8043 3.14439L14.3714 1.58447Z" fill="#111C4E"/>
</svg>
