<svg width="20" height="20" viewBox="0 0 20 20" fill="none" xmlns="http://www.w3.org/2000/svg">
<path d="M12.5002 9.58341C12.5002 8.43282 11.5674 7.50008 10.4168 7.50008C9.26624 7.50008 8.3335 8.43282 8.3335 9.58341C8.3335 10.734 9.26624 11.6667 10.4168 11.6667C11.5674 11.6667 12.5002 10.734 12.5002 9.58341Z" fill="#111C4E"/>
<path d="M12.5002 17.0834C12.5002 15.9328 11.5674 15.0001 10.4168 15.0001C9.26624 15.0001 8.3335 15.9328 8.3335 17.0834C8.3335 18.234 9.26624 19.1667 10.4168 19.1667C11.5674 19.1667 12.5002 18.234 12.5002 17.0834Z" fill="#111C4E"/>
<path d="M12.5002 2.08341C12.5002 0.932822 11.5674 8.15392e-05 10.4168 8.15392e-05C9.26624 8.15392e-05 8.3335 0.932822 8.3335 2.08341C8.3335 3.23401 9.26624 4.16675 10.4168 4.16675C11.5674 4.16675 12.5002 3.23401 12.5002 2.08341Z" fill="#111C4E"/>
</svg>
