<svg width="20" height="20" viewBox="0 0 20 20" fill="none" xmlns="http://www.w3.org/2000/svg">
<path fill-rule="evenodd" clip-rule="evenodd" d="M0.0834961 10C0.0834961 9.58579 0.419283 9.25 0.833496 9.25H19.1668C19.581 9.25 19.9168 9.58579 19.9168 10C19.9168 10.4142 19.581 10.75 19.1668 10.75H0.833496C0.419283 10.75 0.0834961 10.4142 0.0834961 10Z" fill="#111C4E"/>
<path fill-rule="evenodd" clip-rule="evenodd" d="M0.0834961 4.16675C0.0834961 3.75253 0.419283 3.41675 0.833496 3.41675H19.1668C19.581 3.41675 19.9168 3.75253 19.9168 4.16675C19.9168 4.58096 19.581 4.91675 19.1668 4.91675H0.833496C0.419283 4.91675 0.0834961 4.58096 0.0834961 4.16675Z" fill="#111C4E"/>
<path fill-rule="evenodd" clip-rule="evenodd" d="M0.0834961 15.8335C0.0834961 15.4193 0.419283 15.0835 0.833496 15.0835H10.0002C10.4144 15.0835 10.7502 15.4193 10.7502 15.8335C10.7502 16.2477 10.4144 16.5835 10.0002 16.5835H0.833496C0.419283 16.5835 0.0834961 16.2477 0.0834961 15.8335Z" fill="#111C4E"/>
</svg>
