<svg width="20" height="20" viewBox="0 0 20 20" fill="none" xmlns="http://www.w3.org/2000/svg">
<path fill-rule="evenodd" clip-rule="evenodd" d="M18.8635 1.13642C19.1564 1.42931 19.1564 1.90418 18.8635 2.19708L12.1968 8.86374C11.9039 9.15664 11.4291 9.15664 11.1362 8.86374C10.8433 8.57085 10.8433 8.09598 11.1362 7.80308L17.8028 1.13642C18.0957 0.843525 18.5706 0.843525 18.8635 1.13642Z" fill="#111C4E"/>
<path fill-rule="evenodd" clip-rule="evenodd" d="M11.6665 1.75C12.0807 1.75 12.4165 2.08579 12.4165 2.5V7.58333H17.4998C17.9141 7.58333 18.2498 7.91912 18.2498 8.33333C18.2498 8.74755 17.9141 9.08333 17.4998 9.08333H11.6665C11.2523 9.08333 10.9165 8.74755 10.9165 8.33333V2.5C10.9165 2.08579 11.2523 1.75 11.6665 1.75Z" fill="#111C4E"/>
<path fill-rule="evenodd" clip-rule="evenodd" d="M8.8635 11.1364C9.15639 11.4293 9.15639 11.9042 8.8635 12.1971L2.19683 18.8637C1.90394 19.1566 1.42907 19.1566 1.13617 18.8637C0.843281 18.5709 0.843281 18.096 1.13617 17.8031L7.80284 11.1364C8.09573 10.8435 8.57061 10.8435 8.8635 11.1364Z" fill="#111C4E"/>
<path fill-rule="evenodd" clip-rule="evenodd" d="M1.75 11.6667C1.75 11.2525 2.08579 10.9167 2.5 10.9167H8.33333C8.74755 10.9167 9.08333 11.2525 9.08333 11.6667V17.5001C9.08333 17.9143 8.74755 18.2501 8.33333 18.2501C7.91912 18.2501 7.58333 17.9143 7.58333 17.5001V12.4167H2.5C2.08579 12.4167 1.75 12.081 1.75 11.6667Z" fill="#111C4E"/>
</svg>
