<svg width="20" height="20" viewBox="0 0 20 20" fill="none" xmlns="http://www.w3.org/2000/svg">
<path fill-rule="evenodd" clip-rule="evenodd" d="M4.72217 0.916748C5.13638 0.916748 5.47217 1.25253 5.47217 1.66675V10.8334C5.47217 11.2476 5.13638 11.5834 4.72217 11.5834C4.30795 11.5834 3.97217 11.2476 3.97217 10.8334V1.66675C3.97217 1.25253 4.30795 0.916748 4.72217 0.916748Z" fill="#545454"/>
<path fill-rule="evenodd" clip-rule="evenodd" d="M4.72217 15.4307C5.13638 15.4307 5.47217 15.7665 5.47217 16.1807V18.4723C5.47217 18.8865 5.13638 19.2223 4.72217 19.2223C4.30795 19.2223 3.97217 18.8865 3.97217 18.4723V16.1807C3.97217 15.7665 4.30795 15.4307 4.72217 15.4307Z" fill="#545454"/>
<path fill-rule="evenodd" clip-rule="evenodd" d="M4.72233 12.3474C3.87089 12.3474 3.18066 13.0376 3.18066 13.8891C3.18066 14.7405 3.87089 15.4307 4.72233 15.4307C5.57377 15.4307 6.264 14.7405 6.264 13.8891C6.264 13.0376 5.57377 12.3474 4.72233 12.3474ZM1.68066 13.8891C1.68066 12.2092 3.04246 10.8474 4.72233 10.8474C6.4022 10.8474 7.764 12.2092 7.764 13.8891C7.764 15.5689 6.4022 16.9307 4.72233 16.9307C3.04246 16.9307 1.68066 15.5689 1.68066 13.8891Z" fill="#545454"/>
<path fill-rule="evenodd" clip-rule="evenodd" d="M13.8887 0.916748C14.3029 0.916748 14.6387 1.25253 14.6387 1.66675V5.48619C14.6387 5.90041 14.3029 6.23619 13.8887 6.23619C13.4745 6.23619 13.1387 5.90041 13.1387 5.48619V1.66675C13.1387 1.25253 13.4745 0.916748 13.8887 0.916748Z" fill="#545454"/>
<path fill-rule="evenodd" clip-rule="evenodd" d="M13.8887 9.31958C14.3029 9.31958 14.6387 9.65537 14.6387 10.0696V18.4724C14.6387 18.8866 14.3029 19.2224 13.8887 19.2224C13.4745 19.2224 13.1387 18.8866 13.1387 18.4724V10.0696C13.1387 9.65537 13.4745 9.31958 13.8887 9.31958Z" fill="#545454"/>
<path fill-rule="evenodd" clip-rule="evenodd" d="M13.8888 6.23633C13.0374 6.23633 12.3472 6.92656 12.3472 7.77799C12.3472 8.62943 13.0374 9.31966 13.8888 9.31966C14.7403 9.31966 15.4305 8.62943 15.4305 7.77799C15.4305 6.92656 14.7403 6.23633 13.8888 6.23633ZM10.8472 7.77799C10.8472 6.09813 12.209 4.73633 13.8888 4.73633C15.5687 4.73633 16.9305 6.09813 16.9305 7.77799C16.9305 9.45786 15.5687 10.8197 13.8888 10.8197C12.209 10.8197 10.8472 9.45786 10.8472 7.77799Z" fill="#545454"/>
</svg>
