<svg width="20" height="20" viewBox="0 0 20 20" fill="none" xmlns="http://www.w3.org/2000/svg">
<path fill-rule="evenodd" clip-rule="evenodd" d="M10 6.75C10.4143 6.75 10.75 7.08579 10.75 7.5V10.8333C10.75 11.0714 10.637 11.2954 10.4454 11.4368L6.94544 14.0201C6.61217 14.2661 6.1426 14.1953 5.89662 13.8621C5.65064 13.5288 5.72139 13.0592 6.05466 12.8132L9.25005 10.4547V7.5C9.25005 7.08579 9.58583 6.75 10 6.75Z" fill="#111C4E"/>
<path fill-rule="evenodd" clip-rule="evenodd" d="M9.39662 10.3879C9.6426 10.0546 10.1122 9.98389 10.4454 10.2299L13.9454 12.8132C14.2787 13.0592 14.3495 13.5288 14.1035 13.862C13.8575 14.1953 13.3879 14.266 13.0547 14.0201L9.55466 11.4367C9.22139 11.1907 9.15064 10.7212 9.39662 10.3879Z" fill="#111C4E"/>
<path fill-rule="evenodd" clip-rule="evenodd" d="M10.0003 1.58325C8.57359 1.58325 7.41699 2.73985 7.41699 4.16658C7.41699 5.59332 8.57359 6.74992 10.0003 6.74992C11.4271 6.74992 12.5837 5.59332 12.5837 4.16658C12.5837 2.73985 11.4271 1.58325 10.0003 1.58325ZM5.91699 4.16658C5.91699 1.91142 7.74516 0.083252 10.0003 0.083252C12.2555 0.083252 14.0837 1.91142 14.0837 4.16658C14.0837 6.42175 12.2555 8.24992 10.0003 8.24992C7.74516 8.24992 5.91699 6.42175 5.91699 4.16658Z" fill="#111C4E"/>
<path fill-rule="evenodd" clip-rule="evenodd" d="M4.16683 13.25C2.74009 13.25 1.5835 14.4066 1.5835 15.8333C1.5835 17.2601 2.74009 18.4167 4.16683 18.4167C5.59356 18.4167 6.75016 17.2601 6.75016 15.8333C6.75016 14.4066 5.59356 13.25 4.16683 13.25ZM0.0834961 15.8333C0.0834961 13.5782 1.91167 11.75 4.16683 11.75C6.42199 11.75 8.25016 13.5782 8.25016 15.8333C8.25016 18.0885 6.42199 19.9167 4.16683 19.9167C1.91167 19.9167 0.0834961 18.0885 0.0834961 15.8333Z" fill="#111C4E"/>
<path fill-rule="evenodd" clip-rule="evenodd" d="M15.8333 13.25C14.4066 13.25 13.25 14.4066 13.25 15.8333C13.25 17.2601 14.4066 18.4167 15.8333 18.4167C17.2601 18.4167 18.4167 17.2601 18.4167 15.8333C18.4167 14.4066 17.2601 13.25 15.8333 13.25ZM11.75 15.8333C11.75 13.5782 13.5782 11.75 15.8333 11.75C18.0885 11.75 19.9167 13.5782 19.9167 15.8333C19.9167 18.0885 18.0885 19.9167 15.8333 19.9167C13.5782 19.9167 11.75 18.0885 11.75 15.8333Z" fill="#111C4E"/>
</svg>
