<svg width="20" height="20" viewBox="0 0 20 20" fill="none" xmlns="http://www.w3.org/2000/svg">
<path fill-rule="evenodd" clip-rule="evenodd" d="M9.92725 5.98926C10.3415 5.98926 10.6772 6.32504 10.6772 6.73926V10.0518L13.3562 12.7307C13.649 13.0236 13.649 13.4985 13.3562 13.7914C13.0633 14.0843 12.5884 14.0843 12.2955 13.7914L9.39692 10.8928C9.25626 10.7522 9.17725 10.5614 9.17725 10.3625V6.73926C9.17725 6.32504 9.51303 5.98926 9.92725 5.98926Z" fill="#111C4E"/>
<path fill-rule="evenodd" clip-rule="evenodd" d="M9.29268 1.66427C11.2942 1.51816 13.2849 2.0668 14.9289 3.21767C16.573 4.36853 17.7698 6.05119 18.3176 7.98183C18.8653 9.91247 18.7305 11.9729 17.9358 13.8157C17.1411 15.6585 15.7352 17.1708 13.9551 18.0976C12.1751 19.0244 10.1299 19.3089 8.16452 18.9032C6.19912 18.4975 4.43378 17.4264 3.16625 15.8705C1.89872 14.3146 1.20657 12.3692 1.20654 10.3623C1.20654 9.94812 1.54232 9.61233 1.95653 9.61233C2.37075 9.61232 2.70654 9.9481 2.70654 10.3623C2.70657 12.024 3.27967 13.6348 4.32919 14.9231C5.37871 16.2114 6.84041 17.0983 8.46777 17.4342C10.0951 17.7701 11.7886 17.5345 13.2624 16.7672C14.7363 15.9998 15.9004 14.7476 16.5584 13.2217C17.2164 11.6959 17.3281 9.98982 16.8745 8.39125C16.421 6.79267 15.43 5.39943 14.0687 4.44651C12.7074 3.49359 11.0592 3.03931 9.40189 3.16029C7.74463 3.28127 6.1798 3.9701 4.97134 5.11061C4.6701 5.39491 4.19542 5.38118 3.91112 5.07994C3.62682 4.7787 3.64055 4.30403 3.94179 4.01973C5.40129 2.6423 7.29117 1.81038 9.29268 1.66427Z" fill="#111C4E"/>
<path d="M3.40565 1.66675L1.6665 6.59433L6.88394 6.30447L3.40565 1.66675Z" fill="#111C4E"/>
</svg>
