<svg width="20" height="20" viewBox="0 0 20 20" fill="none" xmlns="http://www.w3.org/2000/svg">
<path d="M10 20C15.5228 20 20 15.5228 20 10C20 4.47715 15.5228 0 10 0C4.47715 0 0 4.47715 0 10C0 15.5228 4.47715 20 10 20Z" fill="#111C4E"/>
<path fill-rule="evenodd" clip-rule="evenodd" d="M14.1668 5.83344C14.4597 6.12633 14.4597 6.60121 14.1668 6.8941L6.8941 14.1668C6.60121 14.4597 6.12633 14.4597 5.83344 14.1668C5.54055 13.8739 5.54055 13.3991 5.83344 13.1062L13.1062 5.83344C13.3991 5.54055 13.8739 5.54055 14.1668 5.83344Z" fill="white"/>
<path fill-rule="evenodd" clip-rule="evenodd" d="M5.83344 5.83344C6.12633 5.54055 6.60121 5.54055 6.8941 5.83344L14.1668 13.1062C14.4597 13.3991 14.4597 13.8739 14.1668 14.1668C13.8739 14.4597 13.3991 14.4597 13.1062 14.1668L5.83344 6.8941C5.54055 6.60121 5.54055 6.12633 5.83344 5.83344Z" fill="white"/>
</svg>
