<svg width="20" height="20" viewBox="0 0 20 20" fill="none" xmlns="http://www.w3.org/2000/svg">
<path d="M4.1665 15.37C4.1665 16.9186 5.85073 17.8796 7.18396 17.0918L15.6372 12.0967C16.9473 11.3226 16.9473 9.42713 15.6372 8.65301L7.18396 3.6579C5.85073 2.87009 4.1665 3.83116 4.1665 5.37976V15.37Z" fill="#00912F"/>
<path fill-rule="evenodd" clip-rule="evenodd" d="M3.1665 5.37981C3.1665 3.05691 5.69285 1.61531 7.69269 2.79704L16.1459 7.79214C18.111 8.95332 18.111 11.7965 16.1459 12.9577L7.69269 17.9528C5.69284 19.1345 3.1665 17.6929 3.1665 15.37V5.37981ZM6.67523 4.51889C6.00862 4.12498 5.1665 4.60552 5.1665 5.37981V15.37C5.1665 16.1443 6.00862 16.6249 6.67523 16.2309L15.1285 11.2358C15.7835 10.8488 15.7835 9.90105 15.1285 9.51399L6.67523 4.51889Z" fill="#00912F"/>
</svg>
