<svg width="20" height="20" viewBox="0 0 20 20" fill="none" xmlns="http://www.w3.org/2000/svg">
<path fill-rule="evenodd" clip-rule="evenodd" d="M10 7.58325C10.4142 7.58325 10.75 7.91904 10.75 8.33325V10.9166H13.3333C13.7475 10.9166 14.0833 11.2524 14.0833 11.6666C14.0833 12.0808 13.7475 12.4166 13.3333 12.4166H10C9.58579 12.4166 9.25 12.0808 9.25 11.6666V8.33325C9.25 7.91904 9.58579 7.58325 10 7.58325Z" fill="#111C4E"/>
<path fill-rule="evenodd" clip-rule="evenodd" d="M10 4.9165C6.27208 4.9165 3.25 7.93858 3.25 11.6665C3.25 15.3944 6.27208 18.4165 10 18.4165C13.7279 18.4165 16.75 15.3944 16.75 11.6665C16.75 7.93858 13.7279 4.9165 10 4.9165ZM1.75 11.6665C1.75 7.11015 5.44365 3.4165 10 3.4165C14.5563 3.4165 18.25 7.11015 18.25 11.6665C18.25 16.2229 14.5563 19.9165 10 19.9165C5.44365 19.9165 1.75 16.2229 1.75 11.6665Z" fill="#111C4E"/>
<path fill-rule="evenodd" clip-rule="evenodd" d="M6.75 0.833252C6.75 0.419038 7.08579 0.083252 7.5 0.083252H12.5C12.9142 0.083252 13.25 0.419038 13.25 0.833252C13.25 1.24747 12.9142 1.58325 12.5 1.58325H7.5C7.08579 1.58325 6.75 1.24747 6.75 0.833252Z" fill="#111C4E"/>
<path fill-rule="evenodd" clip-rule="evenodd" d="M10 0.083252C10.4142 0.083252 10.75 0.419038 10.75 0.833252V1.66659C10.75 2.0808 10.4142 2.41659 10 2.41659C9.58579 2.41659 9.25 2.0808 9.25 1.66659V0.833252C9.25 0.419038 9.58579 0.083252 10 0.083252Z" fill="#111C4E"/>
</svg>
