<svg width="32" height="32" viewBox="0 0 32 32" fill="none" xmlns="http://www.w3.org/2000/svg">
<g clip-path="url(#clip0_1008_25353)">
<path fill-rule="evenodd" clip-rule="evenodd" d="M0.583984 16C0.583984 15.5858 0.919771 15.25 1.33398 15.25H4.00065C4.41486 15.25 4.75065 15.5858 4.75065 16C4.75065 16.4142 4.41486 16.75 4.00065 16.75H1.33398C0.919771 16.75 0.583984 16.4142 0.583984 16Z" fill="#111C4E"/>
<path fill-rule="evenodd" clip-rule="evenodd" d="M5.09955 5.09882C5.39245 4.80593 5.86732 4.80593 6.16021 5.09882L8.04555 6.98415C8.33844 7.27705 8.33844 7.75192 8.04555 8.04481C7.75265 8.33771 7.27778 8.33771 6.98489 8.04481L5.09955 6.15948C4.80666 5.86659 4.80666 5.39171 5.09955 5.09882Z" fill="#111C4E"/>
<path fill-rule="evenodd" clip-rule="evenodd" d="M16.0005 0.583252C16.4147 0.583252 16.7505 0.919038 16.7505 1.33325V3.99992C16.7505 4.41413 16.4147 4.74992 16.0005 4.74992C15.5863 4.74992 15.2505 4.41413 15.2505 3.99992V1.33325C15.2505 0.919038 15.5863 0.583252 16.0005 0.583252Z" fill="#111C4E"/>
<path fill-rule="evenodd" clip-rule="evenodd" d="M26.9015 5.09882C27.1944 5.39171 27.1944 5.86659 26.9015 6.15948L25.0162 8.04481C24.7233 8.33771 24.2484 8.33771 23.9555 8.04481C23.6626 7.75192 23.6626 7.27705 23.9555 6.98415L25.8408 5.09882C26.1337 4.80593 26.6086 4.80593 26.9015 5.09882Z" fill="#111C4E"/>
<path fill-rule="evenodd" clip-rule="evenodd" d="M27.2505 16C27.2505 15.5858 27.5863 15.25 28.0005 15.25H30.6672C31.0814 15.25 31.4172 15.5858 31.4172 16C31.4172 16.4142 31.0814 16.75 30.6672 16.75H28.0005C27.5863 16.75 27.2505 16.4142 27.2505 16Z" fill="#111C4E"/>
<path fill-rule="evenodd" clip-rule="evenodd" d="M7.25049 16C7.25049 11.1678 11.1683 7.25 16.0005 7.25C20.8327 7.25 24.7505 11.1678 24.7505 16C24.7505 19.6214 22.5483 22.7171 19.4172 24.0473V27.3333C19.4172 27.7475 19.0814 28.0833 18.6672 28.0833H13.3338C12.9196 28.0833 12.5838 27.7475 12.5838 27.3333V24.0473C9.45272 22.7171 7.25049 19.6214 7.25049 16ZM16.0005 8.75C11.9967 8.75 8.75049 11.9962 8.75049 16C8.75049 19.1529 10.7674 21.8305 13.5841 22.8277C13.8836 22.9337 14.0838 23.2169 14.0838 23.5347V26.5833H17.9172V23.5347C17.9172 23.2169 18.1174 22.9337 18.4169 22.8277C21.2336 21.8305 23.2505 19.1529 23.2505 16C23.2505 11.9962 20.0043 8.75 16.0005 8.75Z" fill="#111C4E"/>
<path fill-rule="evenodd" clip-rule="evenodd" d="M12.584 30.6665C12.584 30.2523 12.9198 29.9165 13.334 29.9165H18.6673C19.0815 29.9165 19.4173 30.2523 19.4173 30.6665C19.4173 31.0807 19.0815 31.4165 18.6673 31.4165H13.334C12.9198 31.4165 12.584 31.0807 12.584 30.6665Z" fill="#111C4E"/>
</g>
<defs>
<clipPath id="clip0_1008_25353">
<rect width="32" height="32" fill="white" transform="translate(0.000488281)"/>
</clipPath>
</defs>
</svg>
