<svg width="20" height="20" viewBox="0 0 20 20" fill="none" xmlns="http://www.w3.org/2000/svg">
<path fill-rule="evenodd" clip-rule="evenodd" d="M12.5161 12.5163C12.8089 12.2234 13.2838 12.2234 13.5767 12.5163L18.8634 17.803C19.1563 18.0959 19.1563 18.5707 18.8634 18.8636C18.5705 19.1565 18.0956 19.1565 17.8027 18.8636L12.5161 13.577C12.2232 13.2841 12.2232 12.8092 12.5161 12.5163Z" fill="#111C4E"/>
<path fill-rule="evenodd" clip-rule="evenodd" d="M8.33317 2.41675C5.06549 2.41675 2.4165 5.06573 2.4165 8.33341C2.4165 11.6011 5.06549 14.2501 8.33317 14.2501C11.6009 14.2501 14.2498 11.6011 14.2498 8.33341C14.2498 5.06573 11.6009 2.41675 8.33317 2.41675ZM0.916504 8.33341C0.916504 4.2373 4.23706 0.916748 8.33317 0.916748C12.4293 0.916748 15.7498 4.2373 15.7498 8.33341C15.7498 12.4295 12.4293 15.7501 8.33317 15.7501C4.23706 15.7501 0.916504 12.4295 0.916504 8.33341Z" fill="#111C4E"/>
</svg>
