<svg width="20" height="20" viewBox="0 0 20 20" fill="none" xmlns="http://www.w3.org/2000/svg">
<path fill-rule="evenodd" clip-rule="evenodd" d="M10.083 3.27835e-08C10.4972 1.46777e-08 10.833 0.335786 10.833 0.75L10.833 19.25C10.833 19.6642 10.4972 20 10.083 20C9.6688 20 9.33301 19.6642 9.33301 19.25L9.33301 0.75C9.33301 0.335786 9.66879 5.08894e-08 10.083 3.27835e-08Z" fill="#111C4E"/>
<path fill-rule="evenodd" clip-rule="evenodd" d="M6 5.08325C6 4.66904 6.33579 4.33325 6.75 4.33325H13.5833C13.9975 4.33325 14.3333 4.66904 14.3333 5.08325C14.3333 5.49747 13.9975 5.83325 13.5833 5.83325H6.75C6.33579 5.83325 6 5.49747 6 5.08325Z" fill="#111C4E"/>
<path fill-rule="evenodd" clip-rule="evenodd" d="M1 10.0833C1 9.66904 1.33579 9.33325 1.75 9.33325H18.5833C18.9975 9.33325 19.3333 9.66904 19.3333 10.0833C19.3333 10.4975 18.9975 10.8333 18.5833 10.8333H1.75C1.33579 10.8333 1 10.4975 1 10.0833Z" fill="#111C4E"/>
<path fill-rule="evenodd" clip-rule="evenodd" d="M6 15.0833C6 14.669 6.33579 14.3333 6.75 14.3333L13.5833 14.3333C13.9975 14.3333 14.3333 14.669 14.3333 15.0833C14.3333 15.4975 13.9975 15.8333 13.5833 15.8333L6.75 15.8333C6.33579 15.8333 6 15.4975 6 15.0833Z" fill="#111C4E"/>
</svg>
